<svg width="21" height="20" viewBox="0 0 21 20" fill="none" xmlns="http://www.w3.org/2000/svg">
<g clip-path="url(#clip0_1_36)">
<path d="M8.42889 15.7422C7.94712 15.7422 7.53371 15.9115 7.18866 16.25C6.84361 16.5885 6.67108 17.0052 6.67108 17.5C6.67108 17.9818 6.84361 18.3952 7.18866 18.7402C7.53371 19.0853 7.94712 19.2578 8.42889 19.2578C8.92369 19.2578 9.34035 19.0853 9.67889 18.7402C10.0174 18.3952 10.1867 17.9818 10.1867 17.5C10.1867 17.0052 10.0174 16.5885 9.67889 16.25C9.34035 15.9115 8.92369 15.7422 8.42889 15.7422ZM8.42889 18.2617C8.22056 18.2617 8.04152 18.1868 7.89178 18.0371C7.74204 17.8874 7.66717 17.7083 7.66717 17.5C7.66717 17.2786 7.74204 17.0931 7.89178 16.9434C8.04152 16.7936 8.22056 16.7188 8.42889 16.7188C8.65025 16.7188 8.83579 16.7936 8.98553 16.9434C9.13527 17.0931 9.21014 17.2786 9.21014 17.5C9.21014 17.7083 9.13527 17.8874 8.98553 18.0371C8.83579 18.1868 8.65025 18.2617 8.42889 18.2617ZM14.6008 15.7422C14.119 15.7422 13.7056 15.9115 13.3605 16.25C13.0155 16.5885 12.843 17.0052 12.843 17.5C12.843 17.9818 13.0155 18.3952 13.3605 18.7402C13.7056 19.0853 14.119 19.2578 14.6008 19.2578C15.0956 19.2578 15.5122 19.0853 15.8508 18.7402C16.1893 18.3952 16.3586 17.9818 16.3586 17.5C16.3586 17.0052 16.1893 16.5885 15.8508 16.25C15.5122 15.9115 15.0956 15.7422 14.6008 15.7422ZM14.6008 18.2617C14.3924 18.2617 14.2101 18.1868 14.0539 18.0371C13.8976 17.8874 13.8195 17.7083 13.8195 17.5C13.8195 17.2786 13.8976 17.0931 14.0539 16.9434C14.2101 16.7936 14.3924 16.7188 14.6008 16.7188C14.8221 16.7188 15.0077 16.7936 15.1574 16.9434C15.3071 17.0931 15.382 17.2786 15.382 17.5C15.382 17.7083 15.3071 17.8874 15.1574 18.0371C15.0077 18.1868 14.8221 18.2617 14.6008 18.2617ZM15.0305 6.48438H7.99921C7.869 6.48438 7.75506 6.52995 7.65741 6.62109C7.55975 6.71224 7.51092 6.82943 7.51092 6.97266C7.51092 7.10286 7.55975 7.2168 7.65741 7.31445C7.75506 7.41211 7.869 7.46094 7.99921 7.46094H15.0305C15.1737 7.46094 15.2941 7.41211 15.3918 7.31445C15.4894 7.2168 15.5383 7.10286 15.5383 6.97266C15.5383 6.82943 15.4894 6.71224 15.3918 6.62109C15.2941 6.52995 15.1737 6.48438 15.0305 6.48438ZM14.6594 9.02344H8.38983C8.2466 9.02344 8.12941 9.07227 8.03827 9.16992C7.94712 9.26758 7.90155 9.38151 7.90155 9.51172C7.90155 9.65495 7.94712 9.77214 8.03827 9.86328C8.12941 9.95443 8.2466 10 8.38983 10H14.6594C14.7896 10 14.9035 9.95443 15.0012 9.86328C15.0988 9.77214 15.1476 9.65495 15.1476 9.51172C15.1476 9.38151 15.0988 9.26758 15.0012 9.16992C14.9035 9.07227 14.7896 9.02344 14.6594 9.02344ZM19.8351 4.27734C19.731 4.17318 19.6138 4.08854 19.4836 4.02344C19.3534 3.95833 19.2167 3.92578 19.0734 3.92578H3.78046L3.46796 2.42188C3.42889 2.26562 3.36053 2.12565 3.26288 2.00195C3.16522 1.87826 3.04478 1.78385 2.90155 1.71875L0.733581 0.78125C0.616394 0.729166 0.492696 0.729166 0.362488 0.78125C0.232279 0.833334 0.141134 0.917969 0.0890503 1.03516C0.036967 1.16537 0.036967 1.29232 0.0890503 1.41602C0.141134 1.53971 0.225769 1.6276 0.342957 1.67969L2.49139 2.61719L4.87421 14.1602C4.92629 14.3815 5.04348 14.5671 5.22577 14.7168C5.40806 14.8665 5.60988 14.9414 5.83124 14.9414H17.6086C17.7388 14.9414 17.8527 14.8926 17.9504 14.7949C18.048 14.6973 18.0969 14.5833 18.0969 14.4531C18.0969 14.3099 18.048 14.1927 17.9504 14.1016C17.8527 14.0104 17.7388 13.9648 17.6086 13.9648H5.83124L5.5578 12.5586H17.6867C17.9211 12.5586 18.1294 12.4837 18.3117 12.334C18.494 12.1842 18.6112 11.9987 18.6633 11.7773L20.0305 5.09766C20.0565 4.95443 20.0532 4.8112 20.0207 4.66797C19.9881 4.52474 19.9263 4.39453 19.8351 4.27734ZM17.6867 11.582H5.34296L3.97577 4.90234H19.0734L17.6867 11.582Z" fill="#222222"/>
</g>
<defs>
<clipPath id="clip0_1_36">
<rect width="20" height="20" fill="white" transform="matrix(1 0 0 -1 0.0499878 20)"/>
</clipPath>
</defs>
</svg>
