<svg width="395" height="135" viewBox="0 0 395 135" fill="none" xmlns="http://www.w3.org/2000/svg">
<path d="M121.075 0.469238L0 0.921817L1.40536 43.5113H14.2441L16.2688 85.4577H1.85793L2.16758 100.798L117.216 100.011V70.1416L91.5149 71.5232L90.2762 86.1008L50.4737 86.5534L50.1641 73.5479L72.4592 72.6189L72.7688 57.1361L51.093 57.4458V43.5113L90.8717 43.0349L91.8007 57.6125H119.074L121.075 0.469238ZM252.988 0.469238L131.913 0.921817L133.318 43.5113H146.157L148.182 85.4577H133.771L134.08 100.798L249.129 100.011V70.1416L223.404 71.5232L222.189 86.1008L182.387 86.5534L182.077 73.5479L204.372 72.6189L204.682 57.1361L183.006 57.4458V43.5113L222.808 43.0349L223.714 57.6125H250.987L252.988 0.469238ZM394.5 49.228C394.5 7.42457 359.985 0.469238 337.524 0.469238C315.085 0.469238 264.612 0.778896 264.612 0.778896L265.85 43.2017H279.475L281.952 86.2437L270.328 85.7911L271.567 100.798C271.567 100.798 311.37 100.321 335.666 100.321C359.985 100.321 394.5 90.8885 394.5 49.228ZM357.484 62.8767C357.484 78.6452 346.027 85.9341 333.188 85.9341C320.183 85.9341 316.014 86.2437 316.014 86.2437L316.61 43.3684C316.61 43.3684 324.518 43.0349 333.808 43.0349C342.954 43.0349 357.484 47.9894 357.484 62.8767Z" fill="#FEE2B3"/>
<path d="M45.4639 123.618H11.9141V126H45.4639V123.618Z" fill="#FEE2B3"/>
<path d="M382.587 123.618H349.037V126H382.587V123.618Z" fill="#FEE2B3"/>
<path d="M52 134.104V115.357H62.8141V117.358H54.382V123.242H61.4802V125.266H54.382V132.079H63.1V134.104H52ZM67.054 134.104V115.357H69.436V132.079H77.6299V134.104H67.054ZM80.9647 134.104V115.357H83.3228V134.104H80.9647ZM92.3505 134.104V117.358H86.7052V115.357H100.425V117.358H94.7563V134.104H92.3505ZM103.784 134.104V115.357H114.598V117.358H106.166V123.242H113.288V125.266H106.166V132.079H114.884V134.104H103.784ZM124.626 134.104V115.357H135.44V117.358H127.008V123.242H134.13V125.266H127.008V132.079H135.726V134.104H124.626ZM143.134 134.104L137.131 115.357H139.656L142.658 125.481C143.007 126.592 143.309 127.625 143.563 128.577C143.817 129.53 144.126 130.562 144.492 131.674H144.611C144.96 130.562 145.262 129.53 145.516 128.577C145.786 127.625 146.088 126.592 146.421 125.481L149.422 115.357H151.852L145.897 134.104H143.134ZM154.424 134.104V115.357H165.215V117.358H156.783V123.242H163.905V125.266H156.783V132.079H165.501V134.104H154.424ZM169.478 134.104V115.357H171.932L178.72 127.124L180.745 131.007H180.864C180.801 130.054 180.737 129.07 180.674 128.053C180.61 127.037 180.578 126.037 180.578 125.052V115.357H182.817V134.104H180.364L173.575 122.289L171.527 118.43H171.432C171.495 119.383 171.567 120.352 171.646 121.336C171.71 122.321 171.741 123.305 171.741 124.29V134.104H169.478ZM191.869 134.104V117.358H186.2V115.357H199.92V117.358H194.251V134.104H191.869ZM200.801 131.674L202.23 130.007C202.897 130.721 203.683 131.293 204.589 131.722C205.494 132.15 206.431 132.365 207.399 132.365C208.638 132.365 209.607 132.079 210.305 131.507C210.988 130.951 211.33 130.213 211.33 129.292C211.33 128.816 211.25 128.411 211.091 128.077C210.917 127.744 210.694 127.458 210.424 127.22C210.154 126.981 209.829 126.767 209.448 126.577C209.067 126.386 208.654 126.187 208.209 125.981L205.518 124.814C205.089 124.623 204.644 124.393 204.184 124.123C203.723 123.853 203.31 123.528 202.945 123.146C202.58 122.765 202.286 122.313 202.064 121.789C201.841 121.265 201.73 120.661 201.73 119.978C201.73 119.28 201.873 118.621 202.159 118.001C202.461 117.398 202.874 116.874 203.398 116.429C203.922 115.985 204.541 115.635 205.256 115.381C205.97 115.127 206.756 115 207.614 115C208.741 115 209.781 115.214 210.734 115.643C211.687 116.072 212.497 116.636 213.164 117.334L211.877 118.859C211.306 118.319 210.671 117.89 209.972 117.573C209.273 117.255 208.487 117.096 207.614 117.096C206.566 117.096 205.724 117.342 205.089 117.835C204.438 118.311 204.112 118.978 204.112 119.835C204.112 120.296 204.208 120.685 204.398 121.003C204.573 121.32 204.811 121.598 205.113 121.836C205.43 122.075 205.764 122.281 206.113 122.456C206.478 122.63 206.851 122.797 207.233 122.956L209.9 124.099C210.424 124.322 210.925 124.584 211.401 124.885C211.877 125.187 212.29 125.528 212.64 125.91C212.989 126.307 213.259 126.767 213.45 127.291C213.656 127.815 213.759 128.419 213.759 129.101C213.759 129.848 213.608 130.547 213.307 131.198C213.021 131.833 212.6 132.397 212.044 132.889C211.488 133.381 210.821 133.762 210.043 134.032C209.265 134.302 208.376 134.437 207.376 134.437C206.057 134.437 204.843 134.191 203.731 133.699C202.604 133.206 201.627 132.532 200.801 131.674ZM223.835 129.101C223.835 129.61 223.93 130.078 224.121 130.507C224.311 130.936 224.573 131.309 224.907 131.626C225.24 131.928 225.637 132.158 226.098 132.317C226.542 132.476 227.019 132.555 227.527 132.555C228.178 132.555 228.797 132.42 229.385 132.15C229.972 131.896 230.544 131.531 231.1 131.055C230.195 130.245 229.313 129.363 228.456 128.411C227.614 127.458 226.86 126.481 226.193 125.481C225.526 126.005 224.97 126.561 224.526 127.148C224.065 127.72 223.835 128.371 223.835 129.101ZM226.05 119.407C226.05 119.931 226.13 120.463 226.288 121.003C226.447 121.558 226.661 122.122 226.931 122.694C227.344 122.408 227.749 122.122 228.146 121.836C228.543 121.535 228.885 121.225 229.17 120.907C229.472 120.59 229.71 120.256 229.885 119.907C230.044 119.558 230.123 119.176 230.123 118.764C230.123 118.208 229.988 117.723 229.718 117.311C229.448 116.898 228.996 116.691 228.361 116.691C227.662 116.691 227.098 116.953 226.669 117.477C226.257 117.985 226.05 118.629 226.05 119.407ZM237.626 132.508L236.983 134.437C236.316 134.247 235.626 133.977 234.911 133.627C234.181 133.278 233.434 132.833 232.672 132.293C231.957 132.944 231.155 133.468 230.266 133.865C229.377 134.247 228.377 134.437 227.265 134.437C226.407 134.437 225.637 134.31 224.954 134.056C224.256 133.802 223.652 133.445 223.144 132.984C222.636 132.524 222.247 131.976 221.977 131.341C221.691 130.705 221.548 130.007 221.548 129.244C221.548 128.609 221.651 128.037 221.858 127.529C222.064 127.021 222.334 126.545 222.668 126.1C223.017 125.655 223.414 125.251 223.859 124.885C224.303 124.52 224.764 124.171 225.24 123.837C224.859 123.059 224.557 122.305 224.335 121.574C224.129 120.844 224.025 120.129 224.025 119.431C224.025 118.811 224.129 118.232 224.335 117.692C224.542 117.168 224.835 116.699 225.216 116.286C225.598 115.889 226.058 115.58 226.598 115.357C227.122 115.119 227.71 115 228.361 115C229.52 115 230.425 115.349 231.076 116.048C231.727 116.731 232.053 117.62 232.053 118.716C232.053 119.335 231.926 119.899 231.672 120.407C231.433 120.931 231.108 121.416 230.695 121.86C230.298 122.305 229.845 122.726 229.337 123.123C228.845 123.504 228.337 123.885 227.813 124.266C228.432 125.235 229.155 126.172 229.98 127.077C230.806 127.966 231.664 128.784 232.553 129.53C233.125 128.752 233.641 127.902 234.101 126.981C234.546 126.076 234.911 125.076 235.197 123.98H237.388C237.007 125.219 236.555 126.402 236.031 127.529C235.491 128.657 234.848 129.713 234.101 130.697C234.752 131.142 235.372 131.515 235.959 131.817C236.547 132.119 237.102 132.349 237.626 132.508ZM246.392 134.104V115.357H251.085C253.975 115.357 256.174 116.159 257.683 117.763C259.191 119.351 259.945 121.646 259.945 124.647C259.945 126.124 259.755 127.45 259.374 128.625C258.993 129.8 258.429 130.793 257.683 131.603C256.936 132.412 256.023 133.032 254.943 133.46C253.864 133.889 252.617 134.104 251.204 134.104H246.392ZM248.774 132.15H250.918C253.109 132.15 254.753 131.499 255.848 130.197C256.944 128.879 257.492 127.029 257.492 124.647C257.492 122.265 256.944 120.447 255.848 119.192C254.753 117.922 253.109 117.287 250.918 117.287H248.774V132.15ZM263.971 134.104V115.357H274.785V117.358H266.353V123.242H273.475V125.266H266.353V132.079H275.071V134.104H263.971ZM277.953 124.719C277.953 123.226 278.16 121.876 278.572 120.669C279.001 119.462 279.589 118.446 280.335 117.62C281.066 116.779 281.947 116.135 282.979 115.691C283.995 115.23 285.099 115 286.29 115C287.433 115 288.434 115.238 289.291 115.715C290.149 116.175 290.855 116.715 291.411 117.334L290.077 118.835C289.585 118.311 289.037 117.89 288.434 117.573C287.83 117.255 287.132 117.096 286.338 117.096C285.432 117.096 284.623 117.271 283.908 117.62C283.178 117.97 282.558 118.478 282.05 119.145C281.526 119.796 281.121 120.59 280.835 121.527C280.549 122.464 280.407 123.512 280.407 124.671C280.407 125.846 280.549 126.91 280.835 127.863C281.105 128.8 281.486 129.602 281.979 130.269C282.471 130.936 283.074 131.452 283.789 131.817C284.504 132.182 285.313 132.365 286.219 132.365C287.124 132.365 287.918 132.182 288.601 131.817C289.283 131.452 289.926 130.936 290.53 130.269L291.864 131.722C291.133 132.579 290.3 133.246 289.363 133.723C288.426 134.199 287.354 134.437 286.147 134.437C284.972 134.437 283.884 134.223 282.884 133.794C281.883 133.349 281.018 132.714 280.287 131.888C279.557 131.063 278.985 130.046 278.572 128.839C278.16 127.617 277.953 126.243 277.953 124.719ZM301.439 134.437C300.264 134.437 299.184 134.215 298.2 133.77C297.215 133.31 296.374 132.651 295.675 131.793C294.976 130.951 294.428 129.927 294.031 128.72C293.634 127.513 293.436 126.156 293.436 124.647C293.436 123.138 293.634 121.789 294.031 120.598C294.428 119.407 294.976 118.398 295.675 117.573C296.374 116.747 297.215 116.112 298.2 115.667C299.184 115.222 300.264 115 301.439 115C302.63 115 303.718 115.23 304.703 115.691C305.671 116.135 306.513 116.771 307.227 117.596C307.942 118.422 308.498 119.431 308.895 120.622C309.292 121.813 309.49 123.154 309.49 124.647C309.49 126.156 309.292 127.513 308.895 128.72C308.498 129.927 307.942 130.951 307.227 131.793C306.513 132.651 305.671 133.31 304.703 133.77C303.718 134.215 302.63 134.437 301.439 134.437ZM301.439 132.365C302.281 132.365 303.043 132.182 303.726 131.817C304.393 131.452 304.973 130.936 305.465 130.269C305.957 129.586 306.33 128.776 306.584 127.839C306.854 126.886 306.989 125.822 306.989 124.647C306.989 123.488 306.854 122.44 306.584 121.503C306.33 120.566 305.957 119.772 305.465 119.121C304.973 118.47 304.393 117.97 303.726 117.62C303.043 117.271 302.281 117.096 301.439 117.096C300.614 117.096 299.859 117.271 299.176 117.62C298.494 117.97 297.914 118.47 297.438 119.121C296.945 119.772 296.564 120.566 296.294 121.503C296.04 122.44 295.913 123.488 295.913 124.647C295.913 125.822 296.04 126.886 296.294 127.839C296.564 128.776 296.945 129.586 297.438 130.269C297.914 130.936 298.494 131.452 299.176 131.817C299.859 132.182 300.614 132.365 301.439 132.365ZM315.874 117.263V124.242H319.018C320.495 124.242 321.622 123.94 322.401 123.337C323.179 122.734 323.568 121.828 323.568 120.622C323.568 119.383 323.179 118.509 322.401 118.001C321.622 117.509 320.495 117.263 319.018 117.263H315.874ZM326.498 134.104H323.806L319.28 126.195H315.874V134.104H313.516V115.357H319.375C320.328 115.357 321.21 115.445 322.019 115.619C322.829 115.81 323.52 116.112 324.092 116.524C324.679 116.937 325.132 117.477 325.449 118.144C325.783 118.811 325.95 119.637 325.95 120.622C325.95 122.082 325.569 123.25 324.806 124.123C324.044 124.996 323.02 125.6 321.734 125.933L326.498 134.104ZM328.355 131.674L329.785 130.007C330.452 130.721 331.238 131.293 332.143 131.722C333.048 132.15 333.985 132.365 334.954 132.365C336.192 132.365 337.153 132.079 337.836 131.507C338.519 130.951 338.86 130.213 338.86 129.292C338.86 128.816 338.781 128.411 338.622 128.077C338.463 127.744 338.241 127.458 337.955 127.22C337.685 126.981 337.359 126.767 336.978 126.577C336.597 126.386 336.184 126.187 335.74 125.981L333.072 124.814C332.627 124.623 332.175 124.393 331.714 124.123C331.254 123.853 330.849 123.528 330.499 123.146C330.134 122.765 329.832 122.313 329.594 121.789C329.372 121.265 329.261 120.661 329.261 119.978C329.261 119.28 329.411 118.621 329.713 118.001C329.999 117.398 330.404 116.874 330.928 116.429C331.452 115.985 332.071 115.635 332.786 115.381C333.501 115.127 334.287 115 335.144 115C336.272 115 337.312 115.214 338.264 115.643C339.217 116.072 340.027 116.636 340.694 117.334L339.408 118.859C338.836 118.319 338.201 117.89 337.502 117.573C336.804 117.255 336.017 117.096 335.144 117.096C334.096 117.096 333.254 117.342 332.619 117.835C331.984 118.311 331.666 118.978 331.666 119.835C331.666 120.296 331.754 120.685 331.928 121.003C332.119 121.32 332.365 121.598 332.667 121.836C332.969 122.075 333.302 122.281 333.667 122.456C334.033 122.63 334.406 122.797 334.787 122.956L337.431 124.099C337.971 124.322 338.479 124.584 338.955 124.885C339.432 125.187 339.837 125.528 340.17 125.91C340.519 126.307 340.797 126.767 341.004 127.291C341.194 127.815 341.29 128.419 341.29 129.101C341.29 129.848 341.147 130.547 340.861 131.198C340.559 131.833 340.13 132.397 339.575 132.889C339.019 133.381 338.352 133.762 337.574 134.032C336.796 134.302 335.914 134.437 334.93 134.437C333.612 134.437 332.389 134.191 331.261 133.699C330.134 133.206 329.165 132.532 328.355 131.674Z" fill="#FEE2B3"/>
</svg>
