<svg width="19" height="22" viewBox="0 0 19 22" fill="none" xmlns="http://www.w3.org/2000/svg">
<g clip-path="url(#clip0_1_28)">
<path d="M14.7958 9.625C15.1805 9.73958 15.5467 9.89509 15.8946 10.0915C16.2424 10.2879 16.6066 10.5867 16.9872 10.9877C17.3678 11.3888 17.6931 11.8614 17.9632 12.4057C18.2333 12.95 18.4584 13.6538 18.6384 14.5173C18.8185 15.3808 18.9085 16.3486 18.9085 17.4208C18.9085 18.6812 18.4993 19.7595 17.6809 20.6557C16.8624 21.5519 15.8762 22 14.7222 22H4.23778C3.08376 22 2.09752 21.5519 1.27907 20.6557C0.460618 19.7595 0.0513916 18.6812 0.0513916 17.4208C0.0513916 16.3486 0.141421 15.3808 0.321481 14.5173C0.50154 13.6538 0.726615 12.95 0.996704 12.4057C1.26679 11.8614 1.59213 11.3888 1.97271 10.9877C2.35329 10.5867 2.7175 10.2879 3.06534 10.0915C3.41318 9.89509 3.77944 9.73958 4.16411 9.625C3.51754 8.60193 3.19425 7.48884 3.19425 6.28572C3.19425 5.43452 3.35999 4.62221 3.69146 3.84877C4.02293 3.07533 4.47103 2.40625 5.03577 1.84152C5.6005 1.27679 6.26958 0.828684 7.04302 0.49721C7.81646 0.165737 8.62877 0 9.47996 0C10.3312 0 11.1435 0.165737 11.9169 0.49721C12.6903 0.828684 13.3594 1.27679 13.9242 1.84152C14.4889 2.40625 14.937 3.07533 15.2685 3.84877C15.5999 4.62221 15.7657 5.43452 15.7657 6.28572C15.7657 7.48884 15.4424 8.60193 14.7958 9.625ZM12.8131 2.95257C12.8131 2.95257 12.5829 2.72238 12.1225 2.262C11.6622 1.80162 10.7813 1.57143 9.47996 1.57143C8.17862 1.57143 7.06757 2.03181 6.14682 2.95257C5.22606 3.87333 4.76568 4.98438 4.76568 6.28572C4.76568 7.58705 5.22606 8.6981 6.14682 9.61886C7.06757 10.5396 8.17862 11 9.47996 11C10.7813 11 11.8924 10.5396 12.8131 9.61886C13.7339 8.6981 14.1942 7.58705 14.1942 6.28572C14.1942 4.98438 13.7339 3.87333 12.8131 2.95257ZM14.7222 20.4286C15.4424 20.4286 16.0583 20.136 16.5698 19.5508C17.0813 18.9656 17.3371 18.2556 17.3371 17.4208C17.3371 15.4647 17.0159 13.9219 16.3734 12.7924C15.7309 11.6629 14.8081 11.0696 13.605 11.0123C12.4182 12.0517 11.0432 12.5714 9.47996 12.5714C7.91672 12.5714 6.54172 12.0517 5.35496 11.0123C4.15184 11.0696 3.22903 11.6629 2.58655 12.7924C1.94406 13.9219 1.62282 15.4647 1.62282 17.4208C1.62282 18.2556 1.87859 18.9656 2.39012 19.5508C2.90165 20.136 3.51754 20.4286 4.23778 20.4286H14.7222Z" fill="#222222"/>
</g>
<defs>
<clipPath id="clip0_1_28">
<rect width="18.86" height="22" fill="white" transform="matrix(1 0 0 -1 0.0499878 22)"/>
</clipPath>
</defs>
</svg>
