<svg width="102" height="44" viewBox="0 0 102 44" fill="none" xmlns="http://www.w3.org/2000/svg">
<rect x="1" y="1" width="100" height="42" rx="5" stroke="white" stroke-width="2"/>
<path d="M14.4311 32V13.0909H19.0014V28.2884H26.8679V32H14.4311ZM46.3448 22.5455C46.3448 24.6259 45.9447 26.3894 45.1445 27.8359C44.3443 29.2824 43.261 30.3812 41.8945 31.1321C40.5342 31.883 39.0077 32.2585 37.315 32.2585C35.6161 32.2585 34.0865 31.88 32.7262 31.1229C31.3659 30.3658 30.2856 29.267 29.4854 27.8267C28.6914 26.3802 28.2944 24.6198 28.2944 22.5455C28.2944 20.465 28.6914 18.7015 29.4854 17.255C30.2856 15.8085 31.3659 14.7098 32.7262 13.9588C34.0865 13.2079 35.6161 12.8324 37.315 12.8324C39.0077 12.8324 40.5342 13.2079 41.8945 13.9588C43.261 14.7098 44.3443 15.8085 45.1445 17.255C45.9447 18.7015 46.3448 20.465 46.3448 22.5455ZM41.6729 22.5455C41.6729 21.3144 41.4975 20.2741 41.1467 19.4247C40.802 18.5753 40.3034 17.9321 39.6509 17.495C39.0046 17.058 38.226 16.8395 37.315 16.8395C36.4102 16.8395 35.6315 17.058 34.979 17.495C34.3266 17.9321 33.8249 18.5753 33.4741 19.4247C33.1294 20.2741 32.957 21.3144 32.957 22.5455C32.957 23.7765 33.1294 24.8168 33.4741 25.6662C33.8249 26.5156 34.3266 27.1589 34.979 27.5959C35.6315 28.0329 36.4102 28.2514 37.315 28.2514C38.226 28.2514 39.0046 28.0329 39.6509 27.5959C40.3034 27.1589 40.802 26.5156 41.1467 25.6662C41.4975 24.8168 41.6729 23.7765 41.6729 22.5455ZM61.4222 19.2678C61.3176 18.88 61.1637 18.5384 60.9606 18.2429C60.7575 17.9413 60.5082 17.6858 60.2127 17.4766C59.9173 17.2673 59.5787 17.1103 59.1971 17.0057C58.8155 16.8949 58.3969 16.8395 57.9414 16.8395C57.0243 16.8395 56.2302 17.0611 55.5593 17.5043C54.8945 17.9474 54.3806 18.5937 54.0174 19.4432C53.6542 20.2865 53.4727 21.3113 53.4727 22.5178C53.4727 23.7304 53.6481 24.7644 53.9989 25.62C54.3498 26.4756 54.8576 27.1281 55.5224 27.5774C56.1871 28.0268 56.9935 28.2514 57.9414 28.2514C58.7785 28.2514 59.4864 28.116 60.065 27.8452C60.6497 27.5682 61.0929 27.1773 61.3945 26.6726C61.6961 26.1679 61.8469 25.5739 61.8469 24.8906L62.6964 24.9922H58.0984V21.6591H66.2511V24.1612C66.2511 25.8539 65.891 27.3035 65.1708 28.5099C64.4568 29.7164 63.4719 30.6428 62.2163 31.2891C60.9667 31.9354 59.5295 32.2585 57.9045 32.2585C56.101 32.2585 54.516 31.8677 53.1495 31.0859C51.783 30.3042 50.7182 29.1901 49.9549 27.7436C49.1916 26.291 48.81 24.5675 48.81 22.5732C48.81 21.022 49.0408 19.6463 49.5025 18.446C49.9641 17.2396 50.6074 16.2178 51.4322 15.3807C52.2631 14.5436 53.2234 13.9096 54.3129 13.4787C55.4085 13.0478 56.5872 12.8324 57.8491 12.8324C58.9447 12.8324 59.9634 12.9893 60.9052 13.3033C61.8531 13.6172 62.6902 14.0604 63.4165 14.6328C64.149 15.2053 64.743 15.8854 65.1985 16.6733C65.654 17.4612 65.9371 18.326 66.0479 19.2678H61.4222ZM86.7921 22.5455C86.7921 24.6259 86.392 26.3894 85.5918 27.8359C84.7916 29.2824 83.7083 30.3812 82.3418 31.1321C80.9815 31.883 79.455 32.2585 77.7623 32.2585C76.0634 32.2585 74.5338 31.88 73.1735 31.1229C71.8132 30.3658 70.7329 29.267 69.9327 27.8267C69.1387 26.3802 68.7417 24.6198 68.7417 22.5455C68.7417 20.465 69.1387 18.7015 69.9327 17.255C70.7329 15.8085 71.8132 14.7098 73.1735 13.9588C74.5338 13.2079 76.0634 12.8324 77.7623 12.8324C79.455 12.8324 80.9815 13.2079 82.3418 13.9588C83.7083 14.7098 84.7916 15.8085 85.5918 17.255C86.392 18.7015 86.7921 20.465 86.7921 22.5455ZM82.1202 22.5455C82.1202 21.3144 81.9448 20.2741 81.5939 19.4247C81.2492 18.5753 80.7507 17.9321 80.0982 17.495C79.4519 17.058 78.6732 16.8395 77.7623 16.8395C76.8574 16.8395 76.0788 17.058 75.4263 17.495C74.7739 17.9321 74.2722 18.5753 73.9213 19.4247C73.5766 20.2741 73.4043 21.3144 73.4043 22.5455C73.4043 23.7765 73.5766 24.8168 73.9213 25.6662C74.2722 26.5156 74.7739 27.1589 75.4263 27.5959C76.0788 28.0329 76.8574 28.2514 77.7623 28.2514C78.6732 28.2514 79.4519 28.0329 80.0982 27.5959C80.7507 27.1589 81.2492 26.5156 81.5939 25.6662C81.9448 24.8168 82.1202 23.7765 82.1202 22.5455Z" fill="white"/>
</svg>
