<svg width="530" height="135" viewBox="0 0 530 135" fill="none" xmlns="http://www.w3.org/2000/svg">
<path d="M111.371 14.1935C95.6932 14.2264 79.8927 14.2924 64.2154 14.2924C46.3406 14.2924 28.4986 14.2594 10.6238 14.1935C9.08228 14.1935 0.754349 17.0914 0.754349 18.7082C0.819951 31.015 0.819951 43.3218 0.78715 55.6616C0.688759 73.7425 0.491965 91.8237 0.360774 109.905C0.360774 110.564 0.426376 111.191 0.0983909 111.851C0.0983909 113.27 0.0983909 114.722 0.0983909 116.14C0.426376 116.998 0.393575 117.823 0.491965 118.681C0.951142 118.648 1.37751 118.615 2.06627 118.582C2.26305 85.3898 2.45984 52.1644 2.65662 18.8071C6.06763 18.8071 9.28178 18.8071 12.4631 18.8071C24.1064 18.8401 35.7496 18.9391 47.36 18.9391C65.1036 18.9061 82.8473 18.8071 100.591 18.7411C102.854 18.7411 102.788 18.7411 102.756 21.0508C102.69 28.3426 102.657 35.6671 102.624 42.9589C102.592 52.7912 102.526 62.5905 102.493 72.4228C102.46 82.0241 102.46 91.6587 102.46 101.26C102.46 106.935 102.493 112.577 102.559 118.252C102.559 119.275 102.329 119.704 101.181 119.704C93.0474 119.605 84.9463 119.539 76.8125 119.506C70.6137 119.473 64.4149 119.473 58.2161 119.44C50.8694 119.407 43.49 119.374 36.1432 119.374C25.6151 119.374 15.087 119.44 4.55889 119.506C3.77174 119.506 2.95181 119.869 2.52543 120.001C1.4759 120.067 0.983931 120.1 0 120.133C0 120.232 0 120.364 0 120.463C1.31192 120.826 2.16466 121.519 3.21419 121.519C14.2342 121.618 25.2871 121.651 36.34 121.618C48.5408 121.584 60.7416 121.42 72.9423 121.387C79.8627 121.387 86.7831 121.486 93.7033 121.585C96.8191 121.618 99.9349 121.651 103.018 121.783C104.166 121.815 113.6 99.8781 113.6 98.7563C113.502 91.7286 113.436 84.7007 113.403 77.6729C113.403 72.6909 113.567 67.6756 113.567 62.6935C113.567 56.5566 113.436 50.4195 113.436 44.2495C113.469 38.5415 113.699 32.7272 113.764 27.0192C113.83 18.8365 113.764 8.84834 113.764 14.1349C113.764 14.1349 112.399 14.1935 112.5 14.1935C112.5 14.1935 112.584 14.1935 111.371 14.1935Z" fill="black"/>
<path d="M255.868 0.23645L134.793 0.689029L136.198 43.2785H149.037L151.062 85.2249H136.651L136.961 100.565L252.009 99.7787V69.9089L226.308 71.2904L225.069 85.868L185.267 86.3206L184.957 73.3151L207.252 72.3861L207.562 56.9033L185.886 57.213V43.2785L225.665 42.8021L226.594 57.3797H253.867L255.868 0.23645ZM387.781 0.23645L266.706 0.689029L268.111 43.2785H280.95L282.975 85.2249H268.564L268.873 100.565L383.922 99.7787V69.9089L358.197 71.2904L356.982 85.868L317.18 86.3206L316.87 73.3151L339.165 72.3861L339.475 56.9033L317.799 57.213V43.2785L357.601 42.8021L358.507 57.3797H385.78L387.781 0.23645ZM529.293 48.9952C529.293 7.19179 494.778 0.23645 472.317 0.23645C449.878 0.23645 399.405 0.546108 399.405 0.546108L400.643 42.9689H414.268L416.745 86.0109L405.121 85.5583L406.36 100.565C406.36 100.565 446.163 100.088 470.459 100.088C494.778 100.088 529.293 90.6558 529.293 48.9952ZM492.277 62.6439C492.277 78.4125 480.82 85.7013 467.981 85.7013C454.976 85.7013 450.807 86.0109 450.807 86.0109L451.403 43.1356C451.403 43.1356 459.311 42.8021 468.601 42.8021C477.747 42.8021 492.277 47.7566 492.277 62.6439Z" fill="black"/>
<path d="M180.257 123.385H146.707V125.767H180.257V123.385Z" fill="black"/>
<path d="M517.38 123.385H483.83V125.767H517.38V123.385Z" fill="black"/>
<path d="M186.793 133.871V115.125H197.607V117.125H189.175V123.009H196.273V125.034H189.175V131.846H197.893V133.871H186.793ZM201.847 133.871V115.125H204.229V131.846H212.423V133.871H201.847ZM215.758 133.871V115.125H218.116V133.871H215.758ZM227.143 133.871V117.125H221.498V115.125H235.218V117.125H229.549V133.871H227.143ZM238.577 133.871V115.125H249.391V117.125H240.959V123.009H248.081V125.034H240.959V131.846H249.677V133.871H238.577ZM259.419 133.871V115.125H270.233V117.125H261.801V123.009H268.923V125.034H261.801V131.846H270.519V133.871H259.419ZM277.927 133.871L271.924 115.125H274.449L277.451 125.248C277.8 126.36 278.102 127.392 278.356 128.345C278.61 129.297 278.919 130.33 279.285 131.441H279.404C279.753 130.33 280.055 129.297 280.309 128.345C280.579 127.392 280.881 126.36 281.214 125.248L284.215 115.125H286.645L280.69 133.871H277.927ZM289.217 133.871V115.125H300.008V117.125H291.576V123.009H298.698V125.034H291.576V131.846H300.294V133.871H289.217ZM304.271 133.871V115.125H306.725L313.513 126.892L315.538 130.774H315.657C315.594 129.821 315.53 128.837 315.467 127.821C315.403 126.804 315.371 125.804 315.371 124.819V115.125H317.61V133.871H315.157L308.368 122.056L306.32 118.197H306.225C306.288 119.15 306.36 120.119 306.439 121.103C306.503 122.088 306.534 123.072 306.534 124.057V133.871H304.271ZM326.662 133.871V117.125H320.993V115.125H334.713V117.125H329.044V133.871H326.662ZM335.594 131.441L337.023 129.774C337.69 130.488 338.476 131.06 339.382 131.489C340.287 131.918 341.224 132.132 342.192 132.132C343.431 132.132 344.4 131.846 345.098 131.274C345.781 130.719 346.123 129.98 346.123 129.059C346.123 128.583 346.043 128.178 345.884 127.844C345.71 127.511 345.487 127.225 345.217 126.987C344.947 126.749 344.622 126.534 344.241 126.344C343.86 126.153 343.447 125.955 343.002 125.748L340.311 124.581C339.882 124.39 339.437 124.16 338.977 123.89C338.516 123.62 338.103 123.295 337.738 122.914C337.373 122.533 337.079 122.08 336.857 121.556C336.634 121.032 336.523 120.428 336.523 119.746C336.523 119.047 336.666 118.388 336.952 117.769C337.254 117.165 337.667 116.641 338.191 116.196C338.715 115.752 339.334 115.402 340.049 115.148C340.763 114.894 341.549 114.767 342.407 114.767C343.534 114.767 344.574 114.982 345.527 115.41C346.48 115.839 347.29 116.403 347.957 117.102L346.67 118.626C346.099 118.086 345.464 117.657 344.765 117.34C344.066 117.022 343.28 116.863 342.407 116.863C341.359 116.863 340.517 117.11 339.882 117.602C339.231 118.078 338.905 118.745 338.905 119.603C338.905 120.063 339 120.452 339.191 120.77C339.366 121.087 339.604 121.365 339.906 121.604C340.223 121.842 340.557 122.048 340.906 122.223C341.271 122.398 341.644 122.564 342.026 122.723L344.693 123.866C345.217 124.089 345.718 124.351 346.194 124.653C346.67 124.954 347.083 125.296 347.433 125.677C347.782 126.074 348.052 126.534 348.242 127.058C348.449 127.582 348.552 128.186 348.552 128.869C348.552 129.615 348.401 130.314 348.1 130.965C347.814 131.6 347.393 132.164 346.837 132.656C346.281 133.148 345.614 133.529 344.836 133.799C344.058 134.069 343.169 134.204 342.168 134.204C340.85 134.204 339.636 133.958 338.524 133.466C337.397 132.974 336.42 132.299 335.594 131.441ZM358.628 128.869C358.628 129.377 358.723 129.845 358.914 130.274C359.104 130.703 359.366 131.076 359.7 131.394C360.033 131.695 360.43 131.926 360.891 132.084C361.335 132.243 361.812 132.323 362.32 132.323C362.971 132.323 363.59 132.188 364.178 131.918C364.765 131.664 365.337 131.298 365.893 130.822C364.988 130.012 364.106 129.131 363.249 128.178C362.407 127.225 361.653 126.248 360.986 125.248C360.319 125.772 359.763 126.328 359.319 126.915C358.858 127.487 358.628 128.138 358.628 128.869ZM360.843 119.174C360.843 119.698 360.922 120.23 361.081 120.77C361.24 121.326 361.454 121.889 361.724 122.461C362.137 122.175 362.542 121.889 362.939 121.604C363.336 121.302 363.678 120.992 363.963 120.675C364.265 120.357 364.503 120.023 364.678 119.674C364.837 119.325 364.916 118.944 364.916 118.531C364.916 117.975 364.781 117.491 364.511 117.078C364.241 116.665 363.789 116.458 363.154 116.458C362.455 116.458 361.891 116.72 361.462 117.244C361.05 117.753 360.843 118.396 360.843 119.174ZM372.419 132.275L371.776 134.204C371.109 134.014 370.419 133.744 369.704 133.394C368.974 133.045 368.227 132.6 367.465 132.061C366.75 132.712 365.948 133.236 365.059 133.633C364.17 134.014 363.169 134.204 362.058 134.204C361.2 134.204 360.43 134.077 359.747 133.823C359.049 133.569 358.445 133.212 357.937 132.751C357.429 132.291 357.04 131.743 356.77 131.108C356.484 130.473 356.341 129.774 356.341 129.012C356.341 128.376 356.444 127.805 356.651 127.297C356.857 126.788 357.127 126.312 357.461 125.867C357.81 125.423 358.207 125.018 358.652 124.653C359.096 124.287 359.557 123.938 360.033 123.604C359.652 122.826 359.35 122.072 359.128 121.342C358.922 120.611 358.818 119.896 358.818 119.198C358.818 118.578 358.922 117.999 359.128 117.459C359.335 116.935 359.628 116.466 360.009 116.053C360.391 115.656 360.851 115.347 361.391 115.125C361.915 114.886 362.503 114.767 363.154 114.767C364.313 114.767 365.218 115.117 365.869 115.815C366.52 116.498 366.846 117.387 366.846 118.483C366.846 119.102 366.719 119.666 366.465 120.174C366.226 120.698 365.901 121.183 365.488 121.627C365.091 122.072 364.638 122.493 364.13 122.89C363.638 123.271 363.13 123.652 362.606 124.033C363.225 125.002 363.948 125.939 364.773 126.844C365.599 127.733 366.457 128.551 367.346 129.297C367.918 128.519 368.434 127.67 368.894 126.749C369.339 125.844 369.704 124.843 369.99 123.747H372.181C371.8 124.986 371.348 126.169 370.824 127.297C370.284 128.424 369.64 129.48 368.894 130.465C369.545 130.909 370.165 131.282 370.752 131.584C371.34 131.886 371.895 132.116 372.419 132.275ZM381.185 133.871V115.125H385.878C388.768 115.125 390.967 115.926 392.476 117.53C393.984 119.118 394.738 121.413 394.738 124.414C394.738 125.891 394.548 127.217 394.167 128.392C393.786 129.567 393.222 130.56 392.476 131.37C391.729 132.18 390.816 132.799 389.736 133.228C388.656 133.656 387.41 133.871 385.997 133.871H381.185ZM383.567 131.918H385.711C387.902 131.918 389.546 131.267 390.641 129.964C391.737 128.646 392.285 126.796 392.285 124.414C392.285 122.032 391.737 120.214 390.641 118.96C389.546 117.689 387.902 117.054 385.711 117.054H383.567V131.918ZM398.764 133.871V115.125H409.578V117.125H401.146V123.009H408.268V125.034H401.146V131.846H409.864V133.871H398.764ZM412.746 124.486C412.746 122.993 412.953 121.643 413.365 120.436C413.794 119.229 414.382 118.213 415.128 117.387C415.859 116.546 416.74 115.903 417.772 115.458C418.788 114.997 419.892 114.767 421.083 114.767C422.226 114.767 423.227 115.005 424.084 115.482C424.942 115.942 425.648 116.482 426.204 117.102L424.87 118.602C424.378 118.078 423.83 117.657 423.227 117.34C422.623 117.022 421.925 116.863 421.131 116.863C420.225 116.863 419.416 117.038 418.701 117.387C417.971 117.737 417.351 118.245 416.843 118.912C416.319 119.563 415.914 120.357 415.628 121.294C415.342 122.231 415.2 123.279 415.2 124.438C415.2 125.613 415.342 126.677 415.628 127.63C415.898 128.567 416.279 129.369 416.772 130.036C417.264 130.703 417.867 131.219 418.582 131.584C419.296 131.949 420.106 132.132 421.012 132.132C421.917 132.132 422.711 131.949 423.393 131.584C424.076 131.219 424.719 130.703 425.323 130.036L426.657 131.489C425.926 132.346 425.093 133.013 424.156 133.49C423.219 133.966 422.147 134.204 420.94 134.204C419.765 134.204 418.677 133.99 417.677 133.561C416.676 133.117 415.811 132.481 415.08 131.656C414.35 130.83 413.778 129.814 413.365 128.607C412.953 127.384 412.746 126.01 412.746 124.486ZM436.232 134.204C435.057 134.204 433.977 133.982 432.993 133.537C432.008 133.077 431.167 132.418 430.468 131.56C429.769 130.719 429.221 129.694 428.824 128.488C428.427 127.281 428.229 125.923 428.229 124.414C428.229 122.906 428.427 121.556 428.824 120.365C429.221 119.174 429.769 118.166 430.468 117.34C431.167 116.514 432.008 115.879 432.993 115.434C433.977 114.99 435.057 114.767 436.232 114.767C437.423 114.767 438.511 114.997 439.496 115.458C440.464 115.903 441.306 116.538 442.02 117.364C442.735 118.189 443.291 119.198 443.688 120.389C444.085 121.58 444.283 122.922 444.283 124.414C444.283 125.923 444.085 127.281 443.688 128.488C443.291 129.694 442.735 130.719 442.02 131.56C441.306 132.418 440.464 133.077 439.496 133.537C438.511 133.982 437.423 134.204 436.232 134.204ZM436.232 132.132C437.074 132.132 437.836 131.949 438.519 131.584C439.186 131.219 439.765 130.703 440.258 130.036C440.75 129.353 441.123 128.543 441.377 127.606C441.647 126.653 441.782 125.589 441.782 124.414C441.782 123.255 441.647 122.207 441.377 121.27C441.123 120.333 440.75 119.539 440.258 118.888C439.765 118.237 439.186 117.737 438.519 117.387C437.836 117.038 437.074 116.863 436.232 116.863C435.407 116.863 434.652 117.038 433.969 117.387C433.287 117.737 432.707 118.237 432.231 118.888C431.738 119.539 431.357 120.333 431.087 121.27C430.833 122.207 430.706 123.255 430.706 124.414C430.706 125.589 430.833 126.653 431.087 127.606C431.357 128.543 431.738 129.353 432.231 130.036C432.707 130.703 433.287 131.219 433.969 131.584C434.652 131.949 435.407 132.132 436.232 132.132ZM450.667 117.03V124.009H453.811C455.288 124.009 456.415 123.708 457.194 123.104C457.972 122.501 458.361 121.596 458.361 120.389C458.361 119.15 457.972 118.277 457.194 117.769C456.415 117.276 455.288 117.03 453.811 117.03H450.667ZM461.291 133.871H458.599L454.073 125.963H450.667V133.871H448.309V115.125H454.168C455.121 115.125 456.003 115.212 456.812 115.387C457.622 115.577 458.313 115.879 458.885 116.292C459.472 116.705 459.925 117.244 460.242 117.911C460.576 118.578 460.743 119.404 460.743 120.389C460.743 121.85 460.362 123.017 459.599 123.89C458.837 124.764 457.813 125.367 456.527 125.701L461.291 133.871ZM463.148 131.441L464.578 129.774C465.245 130.488 466.031 131.06 466.936 131.489C467.841 131.918 468.778 132.132 469.746 132.132C470.985 132.132 471.946 131.846 472.629 131.274C473.312 130.719 473.653 129.98 473.653 129.059C473.653 128.583 473.574 128.178 473.415 127.844C473.256 127.511 473.034 127.225 472.748 126.987C472.478 126.749 472.152 126.534 471.771 126.344C471.39 126.153 470.977 125.955 470.533 125.748L467.865 124.581C467.42 124.39 466.968 124.16 466.507 123.89C466.047 123.62 465.642 123.295 465.292 122.914C464.927 122.533 464.625 122.08 464.387 121.556C464.165 121.032 464.054 120.428 464.054 119.746C464.054 119.047 464.204 118.388 464.506 117.769C464.792 117.165 465.197 116.641 465.721 116.196C466.245 115.752 466.864 115.402 467.579 115.148C468.293 114.894 469.08 114.767 469.937 114.767C471.065 114.767 472.105 114.982 473.057 115.41C474.01 115.839 474.82 116.403 475.487 117.102L474.201 118.626C473.629 118.086 472.994 117.657 472.295 117.34C471.596 117.022 470.81 116.863 469.937 116.863C468.889 116.863 468.047 117.11 467.412 117.602C466.777 118.078 466.459 118.745 466.459 119.603C466.459 120.063 466.547 120.452 466.721 120.77C466.912 121.087 467.158 121.365 467.46 121.604C467.762 121.842 468.095 122.048 468.46 122.223C468.825 122.398 469.199 122.564 469.58 122.723L472.224 123.866C472.764 124.089 473.272 124.351 473.748 124.653C474.225 124.954 474.63 125.296 474.963 125.677C475.312 126.074 475.59 126.534 475.797 127.058C475.987 127.582 476.083 128.186 476.083 128.869C476.083 129.615 475.94 130.314 475.654 130.965C475.352 131.6 474.923 132.164 474.367 132.656C473.812 133.148 473.145 133.529 472.367 133.799C471.589 134.069 470.707 134.204 469.723 134.204C468.405 134.204 467.182 133.958 466.054 133.466C464.927 132.974 463.958 132.299 463.148 131.441Z" fill="black"/>
<path d="M28.8578 116.549C43.5534 116.549 58.2165 116.581 72.9121 116.677C81.2169 116.709 89.5541 116.869 97.8589 116.997C99.0268 117.029 99.481 116.773 99.481 115.526C99.481 103.975 99.5134 92.3921 99.5783 80.8415C99.6107 72.3624 99.6431 63.9154 99.708 55.4362C99.773 44.7815 99.8703 34.1266 100 23.4718C100 22.4479 99.6756 21.968 98.6051 22.064C98.086 22.096 97.5345 22 96.983 22C90.6247 22.032 84.2339 22.128 77.8755 22.128C66.9754 22.128 56.043 22.064 45.1429 22.032C34.7944 22.032 24.4458 22.032 14.0648 22.032C10.691 22.032 7.31724 22.032 3.78116 22.032C3.74872 22.416 3.68384 22.6079 3.68384 22.8319C3.6514 35.9504 3.68384 49.037 3.61896 62.1555C3.55408 74.6661 3.42432 87.1768 3.29456 99.6874C3.22967 104.871 3.13235 110.022 3.00259 115.174C2.97014 116.261 3.22967 116.837 4.5273 116.805C12.6699 116.677 20.7476 116.549 28.8578 116.549ZM13.4485 114.47C11.9237 114.15 10.3667 113.894 8.84189 113.67C7.4794 113.478 6.57107 113.862 6.96037 115.942C6.2142 115.398 5.66274 115.174 5.46803 114.758C5.33832 114.502 5.79247 113.99 5.9222 113.574C6.01961 113.254 6.01961 112.902 6.08447 112.294C7.54426 111.078 9.45833 111.046 11.4047 112.358C13.3511 113.702 13.3511 113.702 14.6812 113.158C13.0592 112.134 11.1451 111.526 10.3017 110.246C9.49076 108.998 9.81508 107.047 9.62049 105.415C9.81508 105.447 10.0422 105.511 10.2368 105.543C10.691 105.223 11.2425 104.935 11.5993 104.519C12.9294 102.951 15.0056 102.983 16.3681 104.615C16.3032 104.711 16.2708 104.871 16.2059 104.839C14.9407 104.775 13.7404 105.031 13.2538 106.311C12.7672 107.654 13.0916 108.934 14.1946 109.958C16.3032 111.974 18.8336 113.094 21.6559 113.478C26.4247 114.118 31.0313 113.958 35.0539 110.79C35.5081 110.406 36.2542 110.374 37.2923 110.022C35.9947 112.358 34.0807 113.126 32.2965 113.798C26.1003 116.102 19.7744 115.878 13.4485 114.47ZM7.25226 61.2277C8.1607 62.6355 7.21982 63.4994 6.18177 64.3633C6.18177 64.1073 6.05204 63.7233 6.2142 63.5633C6.96037 62.7315 6.83052 62.0915 6.18177 61.1957C5.85733 60.7797 5.98718 59.7238 6.3115 59.2118C6.96037 58.2839 8.06329 57.644 9.26362 58.188C9.81508 58.4439 10.3017 59.1798 10.4964 59.7878C10.5937 60.1718 10.0747 60.7157 9.68535 61.4836C9.55562 60.3637 9.58806 59.6598 9.32848 59.0838C9.26362 58.9238 8.32286 58.9559 7.8687 59.1479C6.79809 59.5638 6.66836 60.3317 7.25226 61.2277ZM9.13389 73.7062C10.2044 74.2182 10.7558 74.922 10.2368 75.882C9.36092 75.434 8.61486 74.8261 7.83626 74.7622C7.4794 74.7301 6.57107 75.9779 6.7008 76.33C7.02523 77.0979 7.73897 77.8658 8.48502 78.2177C10.0422 78.9216 11.7291 79.3376 13.3511 79.8815C13.2862 80.0416 13.2538 80.2016 13.1889 80.3615C10.9505 79.7215 8.6473 79.2736 6.5062 78.4097C5.07879 77.8338 4.81927 75.946 5.69517 74.5701C6.34393 73.5142 7.8687 73.1303 9.13389 73.7062ZM16.1086 61.0036C17.2115 60.3317 18.2497 60.2998 19.3202 60.9397C19.5473 61.0677 19.7744 61.2596 20.0339 61.3236C20.7476 61.4516 21.4613 61.5796 22.175 61.6116C22.2723 61.6116 22.4021 61.1957 22.5318 61.0036C21.9155 60.6837 21.3316 60.2037 20.6827 60.0118C18.8336 59.4678 18.4767 58.9879 18.9958 57.2921C19.4824 57.388 19.9691 57.516 20.5854 57.644C20.4881 56.4282 20.0664 55.1163 21.4289 54.9243C22.1426 56.3002 22.6616 57.5801 23.4402 58.6999C24.9324 60.8117 23.9917 63.2114 21.3964 63.6274C20.6178 63.7554 19.7744 63.7233 18.9633 63.7874C17.6008 63.9154 16.2384 64.0433 14.7786 64.1713C14.3893 62.9234 15.557 62.5394 16.7249 62.1875C16.4655 61.7076 16.3032 61.3557 16.1086 61.0036ZM17.5035 58.188C17.4063 58.2839 17.2764 58.4119 17.1791 58.508C15.8166 56.9722 14.4217 55.5003 13.1565 53.9004C12.8969 53.5485 13.0268 52.6526 13.3187 52.2046C13.5134 51.8847 14.2595 51.8847 15.2003 51.5967C13.5134 54.9883 16.0113 56.3641 17.5035 58.188ZM16.3681 53.5165C16.5628 52.8126 16.7574 52.2366 16.8872 51.7887C15.33 50.7008 13.8378 49.6769 12.0535 48.4291C12.6699 48.1411 13.1241 47.9491 13.5782 47.6931C14 47.4691 14.3893 46.9572 14.811 46.9572C15.8166 46.8933 16.8872 46.8933 17.8604 47.1492C18.4767 47.3091 18.9309 48.0451 19.5149 48.3971C19.7744 48.5571 20.261 48.333 20.6503 48.3011C20.553 47.9811 20.553 47.5651 20.3583 47.3412C20.0339 46.9892 19.6122 46.6373 19.1905 46.5412C16.2708 45.9013 14.4541 43.9815 12.9294 41.4858C13.4809 41.3898 13.9675 41.2939 14.519 41.1979C14.0648 39.438 13.6107 37.7103 13.1241 35.9185C15.038 35.0865 16.4979 36.1424 17.9577 37.4862C18.1847 37.0383 18.3794 36.6864 18.6065 36.3025C20.6178 36.9424 20.0988 39.2461 21.5586 40.398C21.591 39.982 21.4613 39.438 21.6559 39.1181C22.11 38.3502 22.7265 37.7103 23.2779 37.0063C23.7321 37.8383 24.2511 38.6701 24.6404 39.5021C24.7379 39.726 24.5431 39.918 24.4458 40.558C24.9973 40.558 25.4515 40.558 25.8732 40.558C26.1328 44.7174 28.5333 46.6692 32.7831 45.3894C34.6646 44.8135 36.3191 43.5976 37.6816 42.8937C37.0653 44.8454 33.7238 47.4371 30.35 48.0451C26.8788 48.6851 24.3161 46.3173 21.364 45.2294C23.6024 47.4691 26.2301 48.781 29.5065 49.069C27.7873 49.453 26.1003 49.8369 24.381 50.2529C24.4458 50.4128 24.5107 50.6048 24.5756 50.7648C30.0257 50.2209 34.5349 47.8531 38.1682 43.7256C37.0328 46.2853 35.2486 48.365 32.8155 49.7729C28.6956 52.1727 24.2511 53.5485 19.3851 53.1966C18.5416 53.0686 17.6008 53.3566 16.3681 53.5165ZM14.4217 30.3511C14.4866 30.1911 14.519 30.0311 14.5839 29.8711C17.8928 30.863 21.5262 30.927 24.5107 33.3907C21.0071 32.3348 17.6981 31.343 14.4217 30.3511ZM68.3705 52.9406C68.5651 53.3885 68.6299 53.9004 68.7272 54.3804C68.2082 54.0604 67.5594 53.8685 67.235 53.4205C66.1644 51.8847 66.9106 49.613 68.5326 49.5169C69.1165 49.485 69.8303 49.741 70.252 50.1249C70.5764 50.4448 70.544 51.1488 70.6413 51.5647C69.668 51.2448 68.9219 50.7008 68.5326 50.8928C67.4946 51.3727 68.0136 52.2046 68.3705 52.9406ZM68.7596 57.42C68.9868 56.6521 69.2788 55.8842 69.668 55.2123C69.8627 54.8604 70.3168 54.6364 70.6737 54.3804C70.9332 54.7644 71.3225 55.1483 71.3873 55.5642C71.4847 56.2362 71.5172 56.9722 71.3549 57.644C70.0248 63.5633 70.7386 69.5147 71.1279 75.466C71.1603 76.1059 71.063 76.7459 71.0306 77.3858C70.8359 77.4178 70.6413 77.4819 70.4466 77.5138C70.1223 76.8419 69.7654 76.202 69.5058 75.498C68.8895 73.8022 68.5326 71.9465 67.6243 70.4106C65.9698 67.5949 62.9528 67.0509 60.0007 66.955C55.0373 66.795 50.074 66.9229 44.786 66.9229C46.1161 64.9713 47.3164 63.6913 49.7495 63.8193C53.1234 64.0113 56.562 63.9154 59.9683 63.7874C64.4452 63.5953 67.4946 61.9315 68.7596 57.42ZM79.4975 37.7422C79.238 36.2064 79.0109 34.7026 78.7514 33.1668C78.5243 31.6949 78.3296 30.255 78.1026 28.7833C78.2323 28.7512 78.3621 28.7192 78.4919 28.6873C78.7514 29.7431 79.0758 30.799 79.2704 31.8549C79.6273 33.9027 80.0166 35.9504 80.2113 37.9982C80.3086 39.1181 80.1463 40.302 79.9193 41.4218C79.822 41.8378 79.1731 42.1258 78.7838 42.5098C78.6541 42.4137 78.5568 42.2857 78.427 42.1897C79.822 40.9419 79.7571 39.3741 79.4975 37.7422ZM83.3904 59.4998C83.7149 60.0438 84.0716 60.5878 84.396 61.1316C84.2339 61.2596 84.0392 61.3876 83.877 61.5156C82.3524 59.1159 80.568 56.8121 79.4002 54.2844C78.0702 51.4367 79.0758 49.2289 81.8982 47.6931C81.9306 48.1411 81.9306 48.525 81.9631 49.005C83.877 49.197 85.4991 49.7089 84.7853 52.2366C84.1366 51.7887 83.65 51.1807 83.0011 51.0208C81.8332 50.7648 80.9898 51.8847 80.9898 53.3245C81.0547 55.6603 82.2225 57.5801 83.3904 59.4998ZM88.5161 68.2348C89.392 69.4187 90.0731 70.7306 90.5597 72.1384C85.6612 65.9311 80.7303 59.6917 75.8318 53.4845C75.8967 53.3245 75.9291 53.1966 75.994 53.0365C76.4481 53.1645 77.0644 53.1645 77.2916 53.4525C81.0872 58.348 84.8178 63.2754 88.5161 68.2348ZM89.7813 46.2534C91.8898 44.8135 94.0633 43.4376 96.3667 42.1577C95.945 42.5737 95.5881 43.0536 95.1339 43.4057C93.22 44.8454 91.1113 46.0933 89.3595 47.6931C86.894 49.9329 86.0181 52.8126 86.7967 56.0762C86.9589 56.7162 87.0237 57.388 87.1536 58.0279C86.9913 58.06 86.8616 58.092 86.6994 58.124C85.3368 56.2041 85.5315 54.0604 85.9532 51.9486C86.4398 49.613 87.7375 47.6612 89.7813 46.2534ZM86.5371 44.5575C88.3862 44.2695 90.2354 44.0136 92.0845 43.7256C90.3003 44.3655 88.6134 45.5174 86.602 44.9734C86.602 44.8454 86.5696 44.7174 86.5371 44.5575ZM92.9928 69.4827C93.3821 70.2826 94.5175 71.1466 95.361 71.1785C96.6261 71.2425 97.1452 70.0266 97.1777 68.7788C97.2101 67.7549 97.275 66.699 97.3399 65.4832C98.5726 67.3389 98.2158 70.6026 96.7884 71.7865C95.6854 72.7144 93.6741 72.3944 92.8307 70.9865C91.0789 67.9149 90.3003 64.1713 93.0577 60.7476C93.1874 60.7797 93.3497 60.8437 93.4794 60.8756C93.3497 61.2596 93.2524 61.6435 93.0577 61.9636C91.7601 64.4593 91.7601 67.019 92.9928 69.4827ZM96.8857 85.3849C96.7884 85.4169 96.6586 85.4489 96.5613 85.5129C96.1071 83.3371 95.5881 81.1934 95.2637 78.9856C95.1664 78.2817 95.4259 77.4178 95.7503 76.7459C95.9125 76.426 96.691 76.298 97.1777 76.3619C97.4372 76.3939 97.8265 77.0018 97.794 77.2898C97.7292 77.6098 97.1777 77.8338 96.983 78.1857C96.6586 78.7617 96.172 79.4337 96.2044 80.0416C96.3018 81.8013 96.6261 83.5931 96.8857 85.3849ZM86.5047 93.64C85.1746 93.1921 84.5259 92.1362 84.8502 90.6003C85.1098 89.3525 86.1803 88.6806 87.6726 88.8086C89.911 88.9686 92.9928 92.5201 92.7657 94.6959C92.7333 95.0159 92.4414 95.3039 92.1169 95.8797C91.5979 94.7599 91.2735 93.832 90.7869 92.9681C90.3976 92.2962 89.8786 91.6562 89.2947 91.1763C88.4836 90.4724 87.2833 90.0564 86.5696 91.0163C86.1803 91.5603 86.5047 92.7122 86.5047 93.64ZM83.1957 97.7356C81.7359 99.8154 80.3086 101.927 78.8488 104.007C78.7838 104.103 78.7514 104.199 78.6865 104.295C77.324 107.462 75.2478 108.742 71.5172 108.198C67.1701 107.591 62.6932 107.75 58.2489 107.719C46.6352 107.654 35.0215 107.686 23.4077 107.686C21.6884 107.686 19.9691 107.878 18.2497 107.942C17.5684 107.974 16.8872 107.878 16.2384 107.846C16.1735 107.686 16.1086 107.526 16.0438 107.366C16.5628 107.047 17.017 106.567 17.6008 106.375C18.7687 106.023 20.0339 105.831 21.2342 105.543C25.6786 104.391 27.333 102.535 27.4304 97.9916C27.5926 90.1525 27.5926 82.3453 27.6574 74.5062C27.7223 67.7869 27.7223 61.0997 27.8197 54.3804C27.8197 53.9645 28.144 53.3245 28.4685 53.1645C30.35 52.1727 32.3289 51.2768 34.47 50.2529C34.5349 50.8608 34.6322 51.4367 34.6322 52.0447C34.5997 54.7644 34.5024 57.4841 34.5024 60.2037C34.5024 63.2754 35.3135 64.0754 38.4277 64.0754C39.8875 64.0754 41.3149 64.0754 42.7748 64.0754C41.7366 66.891 41.4123 67.115 38.525 66.987C34.7944 66.827 34.6646 66.859 34.5997 70.5385C34.5349 76.6499 34.5673 82.7932 34.5997 88.9045C34.5997 91.6242 34.5997 94.3439 34.8269 97.0316C34.989 98.7915 35.4756 100.583 36.0595 102.279C36.5462 103.687 37.4546 104.487 39.3036 104.423C47.868 104.199 56.4647 104.295 65.029 104.071C69.1489 103.975 73.2365 103.303 76.7726 100.999C78.3296 99.9753 79.6273 98.5995 81.0547 97.4156C81.7035 96.8397 82.3848 96.2957 83.066 95.7518C83.1957 95.8477 83.3256 95.9118 83.4553 96.0077C83.358 96.5837 83.2283 97.1916 83.1308 97.7676C83.1633 97.7356 83.1957 97.7356 83.1957 97.7356ZM18.3146 104.455C19.2229 103.239 20.845 103.015 21.9803 102.151C22.0776 102.279 22.175 102.439 22.2723 102.567C21.0396 103.335 19.8392 104.103 18.6065 104.871C18.5092 104.711 18.4119 104.583 18.3146 104.455ZM14.519 74.4742C14.4541 74.8581 14.3893 75.338 14.1621 75.594C14.0324 75.754 13.2538 75.658 13.2214 75.5301C13.0916 75.0821 12.9619 74.4742 13.1565 74.1222C13.9027 72.8743 15.1679 72.7144 16.5628 72.9704C15.8491 73.2263 15.1679 73.4823 14.4217 73.7702C14.4541 74.0902 14.5514 74.2821 14.519 74.4742ZM18.8012 84.1691C21.5586 82.2173 23.4077 79.7215 23.2779 76.17C23.2131 74.6661 22.4669 73.6422 20.845 73.0343C20.4881 75.626 18.3794 74.9541 16.7249 75.5621C16.8872 73.3223 18.347 72.6183 20.3908 72.2984C18.6714 70.8265 17.2115 69.4828 18.5416 67.243C18.5416 69.0988 22.11 68.8108 20.9423 71.3705C26.0029 74.6342 24.381 80.4255 20.0015 83.9131C18.3794 85.193 16.4979 86.1209 14.7461 87.2407C14.6487 87.1127 14.5839 86.9847 14.4866 86.8568C15.9139 85.9609 17.4063 85.1289 18.8012 84.1691ZM16.6925 77.9618C18.1199 76.9699 19.2878 77.0979 20.3258 77.9618C21.3316 78.8256 21.6235 80.0415 20.8125 81.0974C19.7419 82.4733 18.4119 83.6571 17.2115 84.937C17.0494 84.809 16.9197 84.649 16.7574 84.521C17.3738 84.0091 18.1847 83.5931 18.6065 82.9532C19.1905 82.0893 19.9041 81.0334 19.9041 80.0416C19.8717 78.4737 19.1256 78.0898 16.6925 77.9618ZM23.7645 70.2507C24.1214 72.4264 24.6404 74.5701 25.0622 76.7139C24.9973 76.7139 24.9324 76.7139 24.8351 76.7459C24.1214 74.5381 23.3104 72.3304 22.7914 70.0906C22.5643 69.0668 22.6616 67.8509 23.0185 66.859C23.5375 65.5151 24.4783 65.4192 25.7435 66.155C25.127 66.6351 24.1863 66.987 23.8944 67.6589C23.57 68.3948 23.6348 69.3867 23.7645 70.2507ZM20.4881 86.9847C21.3316 86.9527 22.2723 87.3048 23.0509 87.0807C23.9268 86.8247 24.6404 86.0568 25.419 85.5449C24.9324 84.8729 24.4458 84.2011 23.862 83.4332C24.4134 82.8252 25.2569 83.1452 25.9705 83.7851C26.7167 84.4571 26.6842 86.3448 25.7759 86.9847C24.9 87.5607 23.7645 87.9766 22.7265 87.9766C20.7151 87.9766 18.6714 87.6567 16.5628 87.2407C17.8928 87.1448 19.1905 87.0168 20.4881 86.9847ZM36.3839 48.4291C36.3839 53.2605 36.3839 57.868 36.3839 62.5715C35.0863 61.3876 35.0863 49.6449 36.3839 48.4291ZM40.0822 40.5899C40.4715 39.1181 40.6337 37.5823 40.8933 36.0784C41.0554 36.1104 41.2176 36.1424 41.3799 36.2064C40.9257 38.9581 40.4715 41.7098 40.0174 44.4615C39.8551 45.5174 39.4982 46.5412 39.4982 47.5971C39.4658 48.941 40.212 50.0929 41.542 50.3489C42.4828 50.5408 43.6831 50.3168 44.4941 49.8369C45.6295 49.165 45.9539 47.8211 45.4998 46.5733C45.3052 46.0293 44.4941 45.6774 43.9751 45.2294C43.6183 45.7094 43.0342 46.1573 42.9045 46.7012C42.5476 48.365 42.2558 48.621 40.9581 48.0451C41.315 47.3412 41.542 46.4773 42.0935 45.9654C42.7099 45.3573 43.6831 44.6855 44.4293 44.7494C45.1753 44.8454 46.1486 45.7094 46.4081 46.4453C46.7974 47.5971 47.5111 48.845 46.5054 50.1568C45.6945 51.2448 44.9159 51.9806 43.456 51.7567C43.0668 51.6926 42.6125 52.0766 41.834 52.4286C41.6393 52.3646 41.023 52.2046 40.4066 51.9806C38.1682 51.1488 37.3247 49.741 37.9087 47.5012C38.5575 45.1334 39.4658 42.8937 40.0822 40.5899ZM38.9792 38.9901C38.9792 37.3263 38.9792 35.6944 38.9792 34.0306C40.2768 35.0226 40.2768 36.8463 38.9792 38.9901ZM43.2614 38.3182C44.2994 40.5899 45.8566 42.3818 48.5492 42.7657C48.9709 42.8297 49.4251 42.5737 49.8792 42.4777C49.782 42.0938 49.7171 41.6778 49.5224 41.3578C48.7763 40.142 49.1656 39.2141 50.2037 38.4462C50.6903 38.0942 51.2742 37.9342 51.7933 37.6462C53.3504 36.7824 54.9076 35.9185 56.7567 34.8946C56.7567 35.3745 56.7891 36.0145 56.7567 36.6544C56.7243 37.2943 56.627 37.9342 56.562 38.5742C56.7242 38.7021 56.8864 38.8621 57.0487 38.9901C55.9132 39.1821 54.8102 39.3741 53.6748 39.598C53.318 39.6621 52.9935 39.7901 52.7016 39.982C52.6042 40.046 52.6692 40.5259 52.7341 40.558C53.1234 40.6219 53.5451 40.7179 53.9019 40.6219C56.0754 40.046 57.7299 40.43 58.768 41.9658C58.9951 42.2857 58.9951 43.0217 58.768 43.2777C57.2757 45.0374 55.6536 46.6053 52.9611 45.7414C52.7989 45.6774 52.5718 45.8374 51.923 45.9974C52.5718 46.4132 52.8962 46.7012 53.2531 46.7972C53.7073 46.8933 54.2263 46.8292 54.7129 46.7972C57.2757 46.6692 57.8272 47.0852 58.3138 49.6769C57.7623 49.8049 57.2108 49.9649 56.7243 50.0929C56.7891 50.8608 56.9513 51.6287 56.854 52.3646C56.8215 52.6526 56.1402 52.8126 55.2969 53.3245C55.9781 49.5169 53.4153 48.781 51.0471 47.7571C48.6141 46.6692 48.6789 46.7012 49.2954 44.3016C43.6831 43.2457 42.1259 39.0861 41.6393 34.1586C42.1584 35.5345 42.6125 36.9424 43.2614 38.3182ZM42.6775 33.9347C43.5534 35.7585 44.4293 37.1343 46.2459 36.5264C46.8947 36.3024 47.3164 35.2786 47.9004 34.5107C48.9061 34.9586 49.3278 35.9185 48.6789 37.1983C48.095 38.3502 46.3757 38.8942 45.1753 38.3182C44.0076 37.7422 42.8397 35.8544 42.6775 33.9347ZM57.7299 57.836C57.2757 57.7401 56.7567 57.5801 56.3674 57.708C53.7397 58.6679 51.2093 58.4439 48.6465 57.0361C48.9709 56.5881 49.2954 56.1402 49.6847 55.5642C47.9329 54.9883 46.5054 54.1884 46.7974 52.1406C46.9921 50.7008 48.5492 49.197 49.782 49.133C50.8849 49.069 51.7933 49.3889 52.1825 50.8608C51.6959 50.6369 51.404 50.3489 51.112 50.3809C50.4631 50.4448 49.6522 50.4448 49.2305 50.8288C48.8736 51.1488 48.7113 52.0127 48.8736 52.5566C49.2954 53.9965 50.4631 54.6683 51.923 54.7963C53.5775 54.9563 55.2643 55.0523 56.9188 55.0843C59.1248 55.1483 60.4549 56.0761 60.5523 57.708C60.6496 59.4998 59.5465 60.6517 57.373 61.0997C55.7835 61.4196 54.1939 61.8676 52.4096 62.2835C52.5718 61.4836 52.7989 60.5878 53.0908 59.1798C53.9019 59.1159 55.1995 59.0199 56.4971 58.8919C56.9513 58.8279 57.4054 58.6679 57.7947 58.4759C57.8596 58.4759 57.7947 57.8681 57.7299 57.836ZM70.9982 79.6256C69.9924 79.6896 69.4734 79.7215 68.7596 79.7536C68.8246 80.1695 68.8571 80.5215 68.9219 80.9054C66.5213 81.7053 65.2236 81.2894 65.4832 79.7536C64.8019 79.6576 64.1532 79.5616 63.0177 79.3696C64.0559 79.0497 64.6397 78.8897 65.2561 78.6977C65.2236 78.5057 65.1912 78.3137 65.1588 78.1537C63.9909 78.2498 62.8555 78.3457 61.1686 78.4737C62.2716 77.8018 62.9852 77.3858 63.6666 76.9379C63.6666 76.8419 63.6341 76.7459 63.6341 76.6819C63.115 76.7139 62.6284 76.7459 61.8174 76.7779C62.4338 76.3619 62.8555 76.1059 63.5367 75.658C62.7907 75.594 62.3365 75.5301 61.8499 75.498C63.0177 73.9302 64.4126 73.7702 67.1701 74.922C66.9106 75.338 66.6511 75.754 66.5861 75.8181C68.1433 77.0979 69.4085 78.2177 70.9982 79.6256ZM67.0079 94.3759C67.8189 96.6797 68.5975 98.9834 69.2788 101.319C69.3761 101.639 68.8895 102.119 68.6948 102.503C68.2731 102.247 67.4945 102.055 67.4296 101.735C66.4888 97.3196 63.6017 94.0559 60.8442 90.6963C60.1305 89.8324 59.3844 88.9686 58.8329 88.0086C57.8596 86.2489 58.2489 84.2971 59.6439 83.0492C61.0064 81.8013 63.0825 81.5453 64.7695 82.4733C67.4946 83.9451 69.0192 86.4408 70.0897 89.1285C71.5496 92.8081 72.3931 96.6476 72.1335 100.679C72.0686 101.735 71.6469 102.119 70.9656 102.087C69.4734 98.5355 68.046 95.1439 66.5861 91.7522C66.5537 91.6883 66.2294 91.7522 65.7102 91.7522C66.1969 92.7122 66.6835 93.512 67.0079 94.3759ZM43.1317 97.1596C44.851 98.5355 46.5054 99.7513 48.0302 101.095C49.1006 102.023 48.8412 102.631 47.284 103.079C47.4463 100.071 43.8777 99.7833 43.1317 97.1596ZM41.6393 93.256C43.0018 94.6959 43.9751 96.0077 45.2403 96.9356C51.0471 101.287 57.5677 102.535 64.6397 100.903C66.132 100.551 66.132 100.519 66.2942 102.279C56.0105 104.839 44.3969 100.359 41.6393 93.256ZM41.1203 96.1998C42.6125 98.7915 42.6451 102.375 40.9906 103.143C41.1203 101.831 41.25 100.743 41.2825 99.6233C41.315 98.5355 41.1852 97.4476 41.1203 96.1998ZM40.6661 79.0816C40.731 80.1375 40.9581 81.1934 41.3149 82.1853C41.9638 84.0411 43.3911 84.3291 44.851 83.0172C44.9807 83.0812 45.1105 83.1452 45.2403 83.1772C44.9807 83.7211 44.7536 84.745 44.4293 84.745C43.521 84.809 42.4179 84.745 41.6718 84.265C41.0554 83.8491 40.731 82.8572 40.504 82.0573C39.8551 79.5616 39.8551 77.0339 40.6337 74.7941C40.6337 76.074 40.5688 77.5778 40.6661 79.0816ZM47.0894 78.3137C47.2191 79.8176 46.5704 80.4255 45.1429 80.3935C44.4617 80.3615 43.748 80.5215 42.6125 80.6495C40.439 78.2498 41.5096 75.1461 42.1908 72.1384C42.4179 71.1785 42.5801 69.8667 43.9751 69.4507C43.5534 71.1785 43.0342 72.6504 42.9045 74.1222C42.6451 77.2898 43.9751 78.5376 47.0894 78.3137ZM59.5465 77.5458C59.4817 77.5778 59.3195 77.6098 59.1248 77.6738C59.3519 78.0257 59.5465 78.3777 59.7412 78.6977C58.8653 79.6576 57.8272 77.3218 56.8864 78.7936C56.4971 78.5697 55.9781 78.2177 55.4266 77.8977C55.3293 77.9938 55.2319 78.0577 55.1346 78.1537C55.5564 78.7297 55.9781 79.3376 56.627 80.2335C55.9457 79.8815 55.5239 79.6896 55.1346 79.4976C55.0373 79.5935 54.94 79.6896 54.8752 79.7536C55.3942 80.3295 55.9456 80.9054 56.7891 81.7693C55.8808 81.4494 55.3293 81.2254 54.7778 81.0334C54.7129 81.1294 54.648 81.2573 54.5832 81.3534C55.1346 81.8013 55.6861 82.2812 56.2377 82.7292C56.1728 82.8572 56.1402 82.9852 56.0754 83.0812C55.0049 82.7932 53.9667 82.5373 52.8962 82.2493C52.8314 82.3773 52.7665 82.5372 52.7341 82.6652C53.4801 83.0172 54.2263 83.3692 54.9725 83.7211C51.8582 84.905 48.5816 81.3853 48.3222 76.586C49.0682 76.586 49.8144 76.586 51.0147 76.586C50.3334 75.946 49.9765 75.882 49.7495 75.594C49.1655 74.7941 48.4195 73.9942 48.1923 73.0984C47.7057 71.2105 48.3546 70.6665 50.301 70.9865C50.82 71.0825 51.3716 71.1145 51.923 71.0825C53.7721 71.0186 55.4591 71.3705 56.6918 73.2903C56.9837 72.6183 57.1784 72.1704 57.4704 71.5624C58.2813 72.5544 59.0275 73.4823 59.7737 74.4101C59.4168 74.6021 58.8653 74.7941 58.8653 74.8901C59.0599 75.8181 59.3195 76.6499 59.5465 77.5458ZM58.8653 91.0163C59.1248 91.2723 59.0599 91.8802 59.1897 92.4881C58.5733 92.3601 58.184 92.2642 57.7299 92.1682C57.3406 92.8721 56.9513 93.608 56.562 94.3439C56.3674 94.376 56.2052 94.376 56.0105 94.408C55.6536 93.704 55.2969 92.9681 54.9076 92.1362C54.6156 92.2641 54.1939 92.3921 53.8046 92.5521C53.7397 90.7604 54.2587 90.0564 55.5564 90.4403C55.5564 89.9604 55.5564 89.5124 55.5564 89.0645C55.8808 89.0645 55.7511 89.0325 55.8159 89.0325C55.9457 89.8004 56.0754 90.5364 56.2052 91.3043C56.335 91.3043 56.4971 91.3362 56.6594 91.3362C56.7891 90.9523 56.8864 90.5364 57.0163 90.1204C57.0163 90.1204 57.0811 90.0884 57.1136 90.0884C57.6974 90.3444 58.3787 90.5683 58.8653 91.0163ZM52.5718 84.681C52.1176 84.969 51.6635 85.2569 51.2417 85.5129C51.2742 85.6409 51.339 85.7688 51.3716 85.8968C52.1176 85.7049 52.8962 85.481 53.6424 85.2889C53.7073 85.353 53.7397 85.3849 53.8046 85.4489C52.9935 86.0889 52.2149 86.7288 51.404 87.3687C51.5013 87.5287 51.5986 87.6887 51.6959 87.8486C52.4421 87.4967 53.2207 87.1127 54.1614 86.6647C53.6424 87.3048 53.2531 87.8167 52.8638 88.2966C53.026 88.4246 53.1558 88.5526 53.318 88.6806C53.9343 88.0407 54.5183 87.4327 55.1346 86.7928C54.7778 89.4805 52.8962 91.5922 50.3658 92.0082C50.2685 91.4642 50.2037 90.9523 50.0415 90.0244C48.9385 91.4323 48.6465 93.384 46.3757 93.416C46.3432 91.1763 45.5971 88.9045 47.7382 86.9527C47.1218 86.6648 46.7001 86.4408 46.3108 86.2489C47.7382 83.4332 49.3602 83.0172 52.5718 84.681ZM50.4631 93.288C50.6254 94.1839 51.0147 94.9199 50.7876 95.3358C50.5606 95.7518 49.782 96.0718 49.1981 96.1037C47.1218 96.1677 45.5971 95.0479 44.4293 93.4801C47.9329 95.6238 48.7439 95.6558 50.4631 93.288ZM48.3546 97.2556C50.301 98.2795 52.5394 98.8234 54.6805 99.4633C55.2969 99.6554 56.1402 99.6233 56.7243 99.3674C57.5677 98.9834 58.5085 98.3755 58.9626 97.6395C59.1572 97.3196 58.2813 96.3597 57.6974 95.3358C58.6382 95.4958 59.871 95.3039 60.39 95.8477C61.0713 96.5517 61.201 97.7676 61.5579 98.7595C61.3957 98.8554 61.2659 98.9195 61.1037 99.0154C61.493 99.1434 61.8823 99.3034 62.3041 99.4633C62.2066 99.6233 62.1742 99.7833 62.0445 99.8473C60.3576 100.839 58.5085 101.063 56.5945 100.839C51.5013 100.231 47.0245 98.4394 43.5858 94.536C43.229 94.12 42.9045 93.6401 42.5152 93.128C44.5914 94.5679 46.3432 96.1677 48.3546 97.2556ZM60.163 71.6905C60.5847 70.6346 61.3957 70.0266 62.6934 70.0586C61.8823 71.3705 61.1362 72.4903 60.4224 73.6103C60.2927 73.6103 60.163 73.6103 60.0331 73.6103C60.0656 72.9704 59.9358 72.2664 60.163 71.6905ZM66.9754 83.2412C68.4353 81.6413 68.5326 81.6413 70.2844 82.8252C69.96 83.0172 69.668 83.1772 69.2788 83.4012C69.7005 83.9131 70.0897 84.361 70.5439 84.8729C68.4029 85.8968 68.1109 83.7851 66.9754 83.2412ZM43.7155 68.6828C45.2403 66.7631 62.0121 67.403 64.2829 68.6828C57.7947 68.6828 50.9174 68.6828 43.7155 68.6828ZM39.4009 79.2416C39.2712 81.7374 40.0174 84.265 40.439 86.7608C40.504 87.1448 41.0554 87.4327 41.4123 87.7206C41.9638 88.1686 42.7099 88.4885 43.0992 89.0645C43.6831 89.9604 43.9751 91.0163 44.4293 92.0722C42.8072 92.6801 41.7692 91.7202 40.6986 90.0564C40.6337 92.6481 42.2233 95.3358 39.3036 96.5837C39.0441 94.7919 38.7846 93.0961 38.4926 91.3683C38.3629 90.5683 38.233 89.8324 39.1739 89.2885C39.4334 89.1285 39.4982 88.2966 39.3685 87.8486C38.006 82.8892 37.4546 77.8658 39.3036 72.9383C41.0554 68.2989 43.4885 64.0433 47.7706 61.1316C48.7113 60.4917 49.8144 60.1398 50.8524 59.6278C50.9174 59.7558 51.0147 59.8838 51.0796 60.0438C50.074 60.7797 49.0358 61.4516 48.095 62.2195C42.6775 66.667 39.7254 72.3944 39.4009 79.2416ZM40.7634 98.3115C40.5688 99.0154 40.4715 99.8793 40.0822 100.615C39.9848 100.839 39.1089 100.647 38.6223 100.647C39.4334 99.7193 40.0822 99.0475 40.7634 98.3115ZM36.5138 96.5197C36.5462 98.7915 37.3897 101.031 37.9736 103.783C37.2598 102.375 36.3515 101.383 36.2542 100.295C35.8001 96.1677 35.4756 92.0402 35.3783 87.9127C35.2486 82.0573 35.4432 76.202 35.4432 70.3466C35.4432 67.7229 35.4756 67.6589 38.1357 67.6589C38.8819 67.6589 39.6281 67.6589 40.3741 67.6589C40.4066 67.8829 40.439 68.0749 40.4715 68.2989C39.8227 68.3628 39.1415 68.5228 38.4926 68.4908C36.8381 68.3948 36.2867 69.1627 36.3191 70.6665C36.4164 79.2736 36.3191 87.9127 36.5138 96.5197ZM39.2063 53.1966C40.5364 52.7165 41.5096 53.0045 42.2233 54.4444C41.0554 54.2525 39.9524 54.1884 39.7578 55.5962C39.5956 57.0361 40.6013 57.8681 41.7366 58.1559C43.1641 58.4759 44.6887 58.38 46.1811 58.4119C46.7974 58.4439 47.4463 58.3159 48.0626 58.2839C45.6295 59.2439 43.1965 60.0438 40.6661 59.1798C39.0765 58.636 37.7464 57.804 37.5518 55.9163C37.4221 54.6044 37.8763 53.6765 39.2063 53.1966ZM38.5575 60.7797C42.1909 60.1077 45.8242 59.4998 49.4899 58.9238C49.7819 58.8919 50.1064 58.9879 50.3983 59.0199C50.4307 59.2118 50.4631 59.4039 50.4957 59.5638C46.5704 60.4277 42.6775 61.3236 38.7522 62.1555C38.3953 62.2195 37.9087 61.8356 37.487 61.6435C37.8438 61.3236 38.1682 60.8437 38.5575 60.7797ZM83.2931 90.4724C83.066 89.8324 82.9038 89.6085 82.9363 89.4165C83.3256 86.7928 83.6499 84.1691 84.169 81.5453C84.6556 78.9216 85.4342 78.3777 87.5429 78.4417C88.0295 79.2416 88.2241 79.8495 88.6458 80.1695C90.5922 81.7374 90.7545 83.5931 88.7431 84.617C88.7431 84.2011 88.7431 83.8811 88.7431 83.5292C88.7431 82.4412 88.2565 81.4494 87.1536 81.5133C86.4398 81.5453 85.4342 82.2812 85.1746 82.9532C84.5907 84.4571 84.3636 86.1209 83.9743 87.7206C83.8446 88.5206 83.6174 89.2565 83.2931 90.4724ZM80.8276 87.6567C80.6006 88.5206 80.3734 89.3844 80.1139 90.2803C80.0166 90.2484 79.9193 90.2484 79.822 90.2164C79.9841 89.3844 80.1463 88.5526 80.3086 87.7206C80.7952 85.065 79.8544 83.0812 77.4537 81.6733C76.4481 81.0975 75.6695 80.1695 74.5342 79.1777C75.4749 78.8256 75.9291 78.6337 76.4157 78.4417C74.6639 77.9297 74.2422 76.5539 73.788 74.6021C74.9883 74.8901 75.9615 75.1141 76.9347 75.3701C76.9347 75.0181 76.9347 74.6342 76.9347 74.2821C76.9347 74.1862 77.1294 74.0902 77.2591 73.9622C78.3621 74.9861 79.4327 76.01 80.5032 77.0339C80.2113 73.9622 75.8642 73.4503 76.1885 69.9306C76.6103 69.9306 77.0644 69.9306 77.4213 69.9306C77.4213 68.9708 77.2267 68.1709 77.4862 67.4669C77.6809 66.891 78.4919 66.571 78.8488 66.2511C79.238 68.1709 79.3678 69.9306 79.9841 71.4344C81.5413 75.2421 83.4229 78.9216 83.1633 83.1772C83.0336 85.065 82.8065 86.9848 82.3848 88.8725C82.3198 88.5526 82.255 88.2326 82.1252 87.6247C81.7684 88.5206 81.5413 89.0966 81.3142 89.7045C81.2169 89.6724 81.1196 89.6724 81.0547 89.6404C81.0872 88.9686 81.152 88.2966 81.1845 87.6247C81.0547 87.6887 80.9249 87.6887 80.8276 87.6567ZM79.7571 89.1605C79.53 89.1925 79.3354 89.1925 79.1082 89.2245C78.6216 87.6887 79.8544 85.225 76.4481 84.8729C76.8699 84.3291 77.2916 83.5612 77.5186 83.6251C78.1675 83.7531 79.1731 84.1371 79.2704 84.5851C79.6273 86.0889 79.6273 87.6567 79.7571 89.1605ZM73.9177 69.8986C74.6639 70.7306 75.4101 71.5944 76.1885 72.4264C76.0588 72.5224 75.9291 72.6183 75.7994 72.7463C74.9883 71.9145 73.5284 71.6905 73.9177 69.8986ZM90.0732 79.5616C89.7163 78.4097 88.9702 77.3539 88.2565 76.3619C86.7318 74.1862 85.5639 73.8982 83.1308 74.9861C81.9955 73.6103 82.4497 72.8424 84.0716 72.0745C84.0716 71.6585 84.0716 71.1785 84.0716 70.6985C84.396 70.6346 84.4285 70.5706 84.5583 70.5706C88.1268 70.6346 89.8461 73.1943 90.7544 75.882C92.2791 80.2975 93.3173 84.8729 94.3878 89.4165C94.6149 90.3444 93.966 91.4962 93.7066 92.4562C92.5062 88.1366 91.3708 83.8491 90.0732 79.5616ZM87.8996 62.4435C86.5696 62.4435 85.9857 61.8356 86.2452 60.7476C86.6344 59.1798 88.8404 57.804 90.9166 58.1559C89.9758 59.8197 85.6612 59.0199 87.8996 62.4435ZM91.0139 56.5242C92.2142 56.9401 92.5711 57.7401 92.344 58.8599C92.1494 59.8518 92.0521 60.9397 90.2354 61.2277C91.3708 59.5318 92.3765 58.188 91.0139 56.5242ZM88.6134 60.4917C89.3271 61.3876 90.0407 62.3155 90.7869 63.2114C90.5923 63.3714 90.3651 63.5314 90.1704 63.6913C89.4568 62.7954 88.7431 61.8995 87.997 60.9717C88.2241 60.8117 88.4187 60.6517 88.6134 60.4917ZM91.6303 75.626C91.2735 74.4421 90.4949 73.2263 92.1494 71.9784C93.7066 76.2659 95.1015 80.4255 95.7827 84.809C95.9774 86.0248 95.5881 87.3367 95.4584 88.7126C94.1283 84.1371 92.8631 79.8815 91.6303 75.626ZM93.22 59.0518C95.2961 59.5319 96.6261 61.0997 96.4316 62.5715C95.2961 61.3236 94.258 60.1718 93.22 59.0518ZM94.5825 58.508C95.5232 56.4601 96.3667 54.7963 97.0803 53.1006C97.8589 51.2448 97.4696 49.325 96.2694 48.2371C95.4259 47.5012 94.4202 47.0213 93.5119 47.6931C92.7333 48.2691 91.9548 49.2289 91.7925 50.1249C91.4681 51.9806 92.2467 53.6765 93.447 55.1483C93.7714 55.5323 94.0958 55.9482 94.4202 56.3321C94.3553 56.4601 94.2905 56.5562 94.1932 56.6842C93.8039 56.4921 93.3497 56.3321 92.9928 56.0762C91.0789 54.5724 90.2354 51.2127 91.1113 48.941C91.7925 47.2132 93.0577 46.3493 94.9718 46.3493C96.6586 46.3493 97.4696 47.4691 98.0536 48.781C99.1565 51.3727 97.9238 56.3962 94.5825 58.508ZM73.9502 52.5885C75.0856 51.7567 75.9615 51.1488 76.9347 50.4448C76.9347 52.0127 76.0588 52.7165 73.9502 52.5885ZM74.2097 59.2759C80.4059 61.6756 85.4342 65.5151 88.6782 71.4665C87.8996 70.8265 87.0562 70.3146 86.4074 69.5787C83.1633 65.9631 79.6597 62.7315 74.7936 61.2916C74.2746 61.1316 73.9826 60.2998 73.5933 59.7878C73.788 59.6278 73.9826 59.4358 74.2097 59.2759ZM76.0913 63.2114C77.4213 63.5314 78.8812 63.8513 79.9517 64.6192C81.9955 66.0911 83.8446 67.8509 85.7585 69.4827C85.6612 69.6107 85.5639 69.7067 85.4666 69.8347C84.0716 68.5869 82.7415 67.243 81.2493 66.0911C80.341 65.3871 79.2704 64.8112 78.1675 64.4273C75.7994 63.6274 74.4692 64.5873 74.2746 67.243C73.1391 66.3791 72.977 65.4832 73.4311 64.4593C73.9177 63.3394 74.9559 62.9554 76.0913 63.2114ZM76.9347 88.4885C77.3564 88.4566 77.7782 88.3926 78.2323 88.3606C78.8162 89.8964 78.3945 91.1123 77.4862 92.3921C76.7077 93.512 76.3184 94.8879 75.9291 96.3597C76.3833 95.8477 76.8374 95.3678 77.2591 94.8238C78.2323 93.608 79.0758 92.2962 80.1788 91.2403C81.0547 90.4084 82.2549 90.1204 83.066 90.9843C80.9898 93.16 79.0434 95.2718 76.9996 97.2876C75.9291 98.3435 74.6963 99.2714 73.1391 100.583C73.2365 97.9595 72.6201 95.8797 74.08 93.864C75.2802 92.2002 75.1181 90.1523 74.015 88.7765C73.0418 87.5607 72.2632 87.5607 71.1279 88.8725C70.7061 87.7527 70.5439 86.8568 71.7118 86.4089C74.8585 85.353 75.7344 85.7049 76.9347 88.4885ZM72.8148 57.7401C72.2308 63.9473 72.1335 70.1546 72.7499 76.3619C72.9121 77.9938 72.5552 78.2817 71.4523 78.3137C71.582 77.0659 71.874 75.786 71.7766 74.5381C71.29 69.0668 71.2252 63.6274 71.9713 58.1559C72.1011 57.2921 72.1011 56.3962 72.1659 55.5003C72.2958 55.5003 72.4579 55.4683 72.5877 55.4683C72.6525 56.2362 72.8797 57.0041 72.8148 57.7401ZM63.8287 59.7878C64.3153 60.0438 64.737 60.2677 65.1588 60.5237C64.0234 61.6756 62.3041 61.8676 61.4606 61.0036C61.0389 60.5557 61.0389 60.5557 63.1475 58.6039C62.5311 58.6679 62.1094 58.6999 61.6552 58.7639C61.6228 58.6679 61.5579 58.6039 61.5255 58.508C62.4662 58.124 63.407 57.676 64.3153 57.26C64.2829 57.1321 64.2829 57.1961 64.2504 56.8761C63.407 56.8761 62.5959 56.8761 61.7525 56.8761C61.7525 56.8761 61.7201 56.7161 61.7201 56.6201C62.0769 56.4282 62.4662 56.2682 63.1475 55.9482C61.7849 55.6603 60.1954 56.0122 60.5523 54.1564C60.8117 52.7806 62.0769 52.4286 64.7046 53.1006C64.3477 53.7405 63.9909 54.3484 63.6341 54.9563C67.1377 56.1402 68.0136 56.6521 63.8287 59.7878ZM64.6722 48.9729C64.3477 49.741 63.2773 50.5408 62.4338 50.7328C61.3308 50.9568 60.5847 50.1568 60.5847 48.461C61.493 49.6449 62.2716 50.1888 63.2773 49.165C64.1207 48.3011 63.9584 46.9572 62.7258 46.3493C61.493 45.7414 60.0331 45.5494 58.9302 45.2294C60.3576 44.3335 63.2448 44.6215 64.3153 46.2534C64.8019 46.9572 64.9966 48.2371 64.6722 48.9729ZM63.9584 40.7499C64.1207 40.9419 64.3153 41.1018 64.4776 41.2939C63.407 42.1258 62.3689 42.9577 61.2983 43.8215C61.201 43.6935 61.1037 43.5656 61.0064 43.4696C61.9796 42.5417 62.9852 41.6458 63.9584 40.7499ZM62.4338 37.7742C62.9204 38.3822 63.3421 38.6701 63.3745 39.0541C63.407 39.2781 62.9204 39.598 62.6608 39.854C62.3689 39.566 61.9148 39.3421 61.8174 38.9901C61.7201 38.7662 62.1094 38.3822 62.4338 37.7742ZM64.51 32.9108C56.0754 32.9428 47.6084 32.9428 39.1415 32.9428C36.9354 32.9428 36.5137 33.3268 36.4488 35.5345C36.4164 37.3582 36.4164 39.1501 36.3515 40.9738C36.3191 41.5498 36.1245 42.1258 35.9946 42.7017C35.8325 42.6697 35.6378 42.6697 35.4756 42.6378C35.4756 40.8779 35.4756 39.1181 35.4756 37.3582C35.4756 36.7183 35.5405 36.0784 35.5405 35.4385C35.6053 32.3989 36.0595 31.8869 39.0765 31.8549C46.3108 31.8229 53.5451 31.8869 60.7793 31.8869C62.4662 31.8869 64.1531 31.8869 65.8401 31.8869C65.8401 32.1429 65.8725 32.4309 65.8725 32.6869C65.4508 32.7828 64.9966 32.9108 64.51 32.9108ZM15.6545 68.3948C15.9139 69.2587 16.4655 70.0586 16.9521 70.9545C16.3032 70.5706 15.1029 70.2186 14.8434 69.5467C14.519 68.7148 15.038 67.5949 15.1679 66.603C15.4273 66.6351 15.6869 66.667 15.9139 66.731C15.8166 67.275 15.4922 67.9149 15.6545 68.3948ZM18.2821 71.6905C14.1621 73.0343 11.2101 72.4264 10.983 69.9627C13.2538 71.5944 15.622 72.2984 18.2821 71.6905ZM7.05766 81.0014C8.51745 79.9136 11.0154 79.8815 12.5402 80.9695C13.9675 81.9613 14.3568 83.6251 13.6431 85.5449C12.6699 88.2646 12.2806 88.7445 9.32848 90.9843C10.5288 89.0966 11.6317 87.4647 12.5726 85.7369C13.6107 83.8491 12.5726 81.6094 10.6261 81.4174C10.0098 81.3534 9.06903 81.7374 8.80946 82.2173C8.32286 83.0492 9.00405 83.5612 9.87994 83.7211C10.0098 83.7531 10.1071 83.9131 10.4315 84.233C9.75022 84.553 9.19875 84.841 8.71216 85.065C8.80946 86.0568 8.90675 86.9847 9.00405 87.9447C8.84189 87.9766 8.67973 88.0407 8.51745 88.0727C7.90113 87.4967 7.2848 86.9527 6.66836 86.3768C5.04635 84.809 5.20855 82.3773 7.05766 81.0014ZM10.5612 90.9204C13.5782 88.2007 18.4119 87.3367 21.7209 88.9365C26.6518 91.3043 27.1708 97.8956 22.6616 101.063C19.0606 103.591 15.2652 102.823 13.5458 99.2394C12.7672 97.5756 13.1241 95.3358 14.3893 94.0239C15.8815 92.4881 17.3414 92.2002 19.8717 93.1921C19.158 93.576 18.7039 93.8 18.0874 94.12C19.6122 95.0159 21.072 95.6878 20.3908 97.6715C20.0664 97.3835 19.7744 97.1596 19.4499 96.9036C18.4767 96.1677 17.4387 96.0398 16.5304 96.9036C15.6869 97.6715 15.8815 99.2394 16.7574 100.071C17.8604 101.095 19.8068 101.159 21.4613 100.263C23.5375 99.1434 24.7703 96.4557 24.381 93.96C23.9917 91.6883 21.8506 89.5765 19.5149 89.1605C15.038 88.3606 11.6967 90.1525 9.23119 93.672C6.01961 98.2795 5.7276 103.143 8.258 108.166C8.45259 108.582 8.67973 108.998 8.6473 109.638C8.29043 109.19 7.8687 108.806 7.57669 108.294C4.65706 103.047 6.05204 94.9839 10.5612 90.9204ZM13.4161 90.7924C15.2976 89.3844 19.3851 89.2245 21.1693 90.5683C21.6559 90.9523 22.0452 91.6563 22.1426 92.2642C22.2075 92.6161 21.5586 93.0321 21.072 93.608C20.3583 90.1844 19.2878 89.8324 13.4161 90.7924ZM8.58232 107.526C7.44696 104.679 6.53864 102.087 8.258 99.3674C8.93918 98.3115 9.81508 97.5115 11.1776 97.8636C12.5402 98.2475 12.7672 99.3994 12.7348 100.423C11.6967 100.231 10.6585 99.7193 10.1071 100.039C9.29605 100.519 8.45259 101.543 8.32286 102.407C8.09572 103.975 8.45259 105.639 8.58232 107.526ZM25.5163 111.686C25.4515 111.366 26.0679 110.918 26.4571 110.438C27.8197 112.87 28.4036 112.902 33.3994 110.982C32.1342 112.39 28.2739 113.51 26.5545 112.87C26.1328 112.71 25.6137 112.166 25.5163 111.686ZM38.4602 110.534C37.3247 112.198 36.2542 113.734 35.1188 115.334C34.1456 114.566 34.989 113.222 38.4602 110.534ZM45.9215 111.27C44.9483 111.142 43.9427 110.822 42.9694 110.918C42.2882 110.982 41.7042 111.622 41.0554 111.974C41.6069 112.326 42.1259 112.774 42.7424 112.966C43.3262 113.158 44.0076 113.062 44.6563 113.094C45.1105 114.822 44.4941 115.622 42.7099 115.334C41.9962 115.206 41.315 114.726 40.6013 114.598C39.5956 114.406 38.525 114.406 37.2598 114.278C37.3247 113.574 37.9736 113.222 38.9468 113.446C39.8875 113.67 40.7634 114.086 41.7042 114.342C42.3531 114.502 43.0668 114.534 43.748 114.598C43.7804 114.374 43.8128 114.15 43.8777 113.926C43.2938 113.798 42.6775 113.606 42.0611 113.574C41.023 113.478 40.0498 113.126 40.2444 112.038C40.3417 111.43 41.25 110.566 41.8989 110.47C43.229 110.278 44.6563 110.502 46.0188 110.566C45.9539 110.854 45.9539 111.046 45.9215 111.27ZM54.4534 114.822C57.0487 114.662 59.871 114.47 62.2716 114.31C60.3576 115.718 55.9781 116.07 54.4534 114.822ZM59.4168 113.83C59.4168 112.742 59.4168 111.654 59.4168 110.598C59.4168 110.566 59.6764 110.502 59.8385 110.47C61.8499 113.574 63.9909 110.374 66.2618 110.566C64.4776 113.19 61.6876 113.542 59.4168 113.83ZM64.8019 115.174C64.6722 115.302 64.1856 115.302 64.0883 115.174C63.8936 114.918 63.6017 114.342 63.699 114.246C65.0615 112.998 66.4888 111.782 67.9162 110.598C68.0136 110.534 68.3055 110.694 68.8571 110.854C67.4296 112.39 66.132 113.798 64.8019 115.174ZM75.8318 113.382C76.2535 114.246 76.0264 114.886 75.0856 115.11C74.0476 115.334 72.977 115.462 71.9065 115.462C70.2196 115.462 69.3112 114.47 69.5383 113.126C69.7654 111.814 71.0306 111.142 72.977 111.59C72.1984 112.006 71.6145 112.198 71.1603 112.55C70.8683 112.774 70.5114 113.222 70.5439 113.51C70.5764 113.798 71.0306 114.118 71.3873 114.278C71.874 114.502 72.5228 114.79 72.9121 114.598C73.4311 114.374 74.1449 113.638 74.0476 113.318C73.8204 112.486 73.7231 111.782 74.5666 111.43C75.3451 111.11 76.2535 111.014 77.097 110.822C77.1294 111.014 77.1943 111.206 77.2267 111.43C76.6103 111.622 75.994 111.846 75.1829 112.102C75.4749 112.614 75.6695 112.998 75.8318 113.382ZM74.4692 110.054C69.0517 109.67 63.6017 109.318 58.184 109.254C50.009 109.126 41.8016 109.222 33.5941 109.286C28.9551 109.318 24.3161 109.446 19.6771 109.478C18.8012 109.478 17.9253 109.286 17.0169 109.158C17.0169 108.998 17.0169 108.838 17.0169 108.678C18.1199 108.614 19.2553 108.486 20.3583 108.486C35.8974 108.518 51.4689 108.518 67.0079 108.582C69.441 108.582 71.874 108.902 74.2746 108.934C75.1181 108.934 76.3833 108.742 76.7401 108.166C78.9785 104.743 81.0223 101.191 83.1308 97.7036C83.4553 97.4156 83.7797 97.0957 84.1042 96.8077C84.2015 96.8397 84.2987 96.8716 84.3636 96.9036C84.1366 97.6715 84.0392 98.4715 83.65 99.1754C82.0604 102.055 80.3734 104.903 78.7189 107.75C77.843 109.414 76.5778 110.214 74.4692 110.054ZM83.8446 109.414C83.8446 109.798 83.3255 110.15 83.0011 110.502C82.6442 110.182 82.0604 109.862 82.0279 109.51C81.9955 109.126 82.4821 108.71 82.9363 108.006C83.358 108.646 83.8446 109.03 83.8446 109.414ZM78.5568 110.438C78.6541 109.926 79.3354 109.126 79.7571 109.126C80.3086 109.126 80.86 109.798 81.4115 110.15C81.4115 110.342 81.3791 110.534 81.3791 110.758C80.7952 111.078 80.2113 111.622 79.6273 111.622C79.2704 111.654 78.4919 110.79 78.5568 110.438ZM81.0547 114.278C80.6979 114.118 80.4383 113.606 80.3734 113.19C80.341 112.934 80.6654 112.422 80.9249 112.39C81.2818 112.326 81.7035 112.486 82.0604 112.678C82.4821 112.902 82.839 113.222 83.3904 113.638C82.7415 114.214 82.0279 114.758 81.0547 114.278ZM98.2158 113.926C98.0212 115.142 97.2426 115.622 95.8801 115.27C95.8801 114.342 96.4964 113.062 94.8095 112.838C93.3173 112.646 92.8307 113.318 92.1818 115.334C92.1818 114.95 92.1818 114.598 92.1818 113.958C91.533 114.342 90.8517 114.694 90.2354 114.918C89.5541 115.174 88.8404 115.43 88.1268 115.494C87.8023 115.526 87.2509 115.206 87.1211 114.918C86.9913 114.662 87.2509 114.15 87.4779 113.83C88.2565 112.806 89.1324 111.878 89.8786 110.822C90.0731 110.566 89.8461 109.638 89.6838 109.606C88.2241 109.286 88.6782 108.326 88.8729 107.462C89.2621 105.703 89.6838 103.943 90.0083 102.183C90.1056 101.703 90.0407 100.999 89.7163 100.679C89.2621 100.167 88.5809 99.9113 87.9645 99.5274C87.6077 100.103 87.0237 100.647 86.9264 101.255C86.8291 101.959 87.2184 102.695 87.2833 103.431C87.413 105.159 87.6077 106.919 87.5103 108.646C87.413 110.598 85.8559 111.558 84.2339 112.23C83.7797 112.422 83.1633 112.134 82.6118 112.07C82.6443 111.91 82.6767 111.718 82.7091 111.558C86.1803 110.406 86.9913 108.934 86.1803 105.255C85.8559 103.847 85.4018 102.471 85.1746 101.063C84.8502 98.9834 85.6288 97.3835 87.0562 96.7117C88.8729 95.8477 89.9758 96.1037 91.9223 97.9275C92.1494 97.4796 92.3765 97.0636 92.636 96.5517C95.0691 98.5355 94.5825 101.127 94.2256 103.783C95.361 102.759 95.4908 100.231 94.9068 98.1835C94.4851 96.6797 94.258 95.0798 94.1932 93.512C94.1607 92.9041 94.8095 92.2962 95.3285 91.7202C95.4584 88.6806 95.945 87.3687 97.2102 86.6008C97.3399 90.3124 97.502 94.248 97.5995 98.2155C97.6968 101.639 97.5345 105.031 96.1395 108.23C95.4259 109.894 94.4851 110.246 92.928 109.382C91.9872 110.694 91.0789 112.038 90.138 113.35C90.203 113.446 90.2679 113.51 90.3003 113.606C90.6247 113.382 90.949 113.158 91.2735 112.902C92.7982 111.75 94.2905 110.63 96.3991 111.046C97.5994 111.302 98.4104 112.486 98.2158 113.926ZM97.794 64.1073C96.8533 65.2912 94.3229 65.7071 93.155 64.7153C93.8363 64.6192 94.3878 64.5873 94.9392 64.4912C97.5994 64.0113 98.4754 62.0275 97.0479 59.7878C96.7884 59.3718 96.6261 58.8919 96.4316 58.4439C96.5937 58.38 96.7236 58.3159 96.8857 58.2839C98.8321 59.6598 99.2538 62.2835 97.794 64.1073ZM98.6699 24.0478C98.9944 24.5277 98.5402 25.1036 97.6643 25.3916C97.1777 25.5516 96.5937 25.4876 96.1071 25.3277C93.4794 24.5917 90.8842 23.8238 88.3862 23.1199C91.5655 23.4078 94.9392 23.7278 98.6699 24.0478ZM95.5232 27.2154C98.1509 29.4871 99.4485 33.8067 98.3455 37.1663C97.1452 40.8139 94.1283 43.0536 90.2679 43.2457C85.4667 43.4696 81.9631 40.11 82.0279 35.3745C82.0604 33.2948 82.0279 31.1829 82.0279 29.0713C83.4229 28.9752 84.5907 30.0311 84.7205 31.8549C84.7853 32.9747 84.688 34.0947 84.7205 35.2145C84.7205 35.7585 84.8502 36.3024 85.2071 36.9424C85.9208 35.1506 86.3425 33.1027 88.8729 33.5507C89.619 33.6787 90.3003 34.3827 90.9815 34.8306C90.9166 34.9906 90.8517 35.1506 90.7544 35.3105C90.4624 35.3425 90.1704 35.4066 89.8786 35.4385C88.2565 35.5985 87.3806 36.3984 87.2184 37.9022C87.0886 39.1181 88.0943 40.5899 89.392 40.9419C91.1113 41.4218 92.7333 41.1018 94.1607 40.046C99.9676 35.6305 96.7236 28.3033 92.5387 26.4155C88.1268 24.4318 83.7473 24.6237 79.4002 26.6075C78.8812 26.8315 78.2972 26.9594 77.6484 26.8954C79.3678 24.9756 81.6386 24.2718 84.0716 24.0478C88.2565 23.6638 92.1818 24.3357 95.5232 27.2154ZM93.8039 31.535C93.2524 31.7269 92.6684 31.8549 92.2142 32.1749C91.2086 32.9108 90.1056 32.9747 89.2297 32.2388C88.6458 31.7269 88.4512 30.7671 88.0943 29.9991C88.2565 29.9031 88.4187 29.8071 88.5809 29.7112C88.8404 29.9351 89.0675 30.2871 89.3595 30.3511C89.8137 30.4471 90.5597 30.511 90.7869 30.255C91.1113 29.9031 91.2735 29.1672 91.1113 28.6873C90.6572 27.3434 89.4893 26.7994 88.1916 26.4795C87.6402 26.3515 87.0886 26.2236 86.5696 25.9995C89.0027 25.7435 91.2086 26.3195 93.155 27.7594C94.7122 28.9112 94.9068 30.127 93.8039 31.535ZM95.9125 35.5985C96.0423 35.4066 96.172 35.1825 96.3018 34.9906C95.8801 37.0063 94.9068 38.5421 92.7657 39.0222C91.7601 39.2461 90.8842 39.0541 90.6572 37.9022C90.4949 37.1023 91.3383 36.3984 92.0521 36.7183C94.1607 37.5823 94.7122 37.4223 95.9125 35.5985ZM78.8812 23.2799C78.7838 25.4876 76.9023 25.7756 76.1561 26.9594C76.0588 26.8635 75.9291 26.7994 75.8318 26.7035C76.7401 25.6796 77.6809 24.6237 78.8812 23.2799ZM69.3112 23.6958C70.4141 23.4078 71.6469 23.5678 72.8148 23.6318C73.3663 23.6638 73.9177 23.8558 74.4692 23.9518C74.6963 23.8558 74.9559 23.7918 75.1829 23.6958C75.1181 24.6557 75.2478 25.6796 74.8909 26.5114C74.6639 26.9915 73.6258 27.1195 73.3987 27.2154C72.3931 25.9676 71.8415 24.7837 70.9007 24.3038C70.4466 24.0478 69.3112 25.0397 68.1433 25.6476C68.5651 24.8797 68.7921 23.8238 69.3112 23.6958ZM76.6753 28.3993C76.9671 28.3993 77.3889 28.9752 77.4537 29.3272C78.0053 32.4628 78.4919 35.6305 78.9136 38.7662C79.0109 39.5341 78.7514 40.3339 78.6541 41.1338C78.4595 41.1338 78.2972 41.1659 78.1026 41.1659C77.8755 40.27 77.6485 39.4061 77.4213 38.5102C76.3833 34.4786 73.9826 31.9829 69.6355 31.5669C67.6567 31.375 68.5651 29.7112 67.6892 28.3353C70.9656 28.3673 73.8204 28.3353 76.6753 28.3993ZM75.8642 38.6701C75.7668 38.8301 75.6695 39.0222 75.5722 39.182C73.5609 39.0541 73.3663 39.3421 73.3014 42.3818C72.5877 39.7901 72.8797 38.1582 74.2097 37.9342C74.7288 37.8702 75.3126 38.4141 75.8642 38.6701ZM68.5651 32.9428C68.5975 32.7188 68.6299 32.5268 68.6624 32.3029C70.0573 32.5268 71.4523 32.7508 72.8472 33.0068C72.8148 33.1988 72.7824 33.3587 72.7499 33.5507C71.3549 33.3268 69.96 33.1347 68.5651 32.9428ZM72.7174 43.5016C72.7174 43.6935 72.6201 43.8856 72.4255 44.5575C71.9389 43.7576 71.4847 43.3416 71.4198 42.8937C71.1927 40.4619 71.063 38.0622 70.9656 35.6305C70.9656 35.3425 71.3873 35.0226 71.582 34.7026C71.7766 34.9906 72.1335 35.2786 72.1659 35.5985C72.3931 38.2542 72.5552 40.8779 72.7174 43.5016ZM70.4466 34.6706C70.4466 37.2303 70.4466 39.7901 70.4466 42.3498C70.1223 42.3498 70.1223 42.3818 70.0248 42.3818C69.8627 39.822 69.7654 37.2623 69.6031 34.7026C69.8627 34.7026 70.1223 34.7026 70.4466 34.6706ZM67.8513 42.9897C69.9276 43.1816 71.063 44.5894 72.0686 46.1573C72.5228 46.8612 72.8472 47.6292 73.2365 48.333C73.4311 48.333 73.6258 48.333 73.8529 48.333C72.8472 45.7733 73.0094 43.7256 75.9291 42.9256C76.9996 42.6378 77.4537 42.9256 78.0702 44.1415C77.6809 44.1415 77.3564 44.1415 76.9996 44.1415C75.7668 44.1736 75.1181 44.9415 75.4101 46.1573C75.5398 46.6692 75.8318 47.1492 76.0588 47.6292C76.7401 49.165 76.513 50.0288 75.1181 50.8928C73.9826 51.5967 72.8148 51.3727 71.874 50.1568C70.8683 48.845 69.9275 47.4691 68.9868 46.0933C68.1109 44.8135 67.0403 44.0775 65.4508 45.0374C65.5481 43.5016 66.3591 42.8617 67.8513 42.9897ZM52.1501 24.4957C53.2531 23.1199 55.9457 22.5759 57.4054 23.5678C57.8272 23.8558 58.3138 24.6557 58.184 24.9117C57.957 25.3596 57.2757 25.7116 56.7567 25.9035C56.335 26.0315 55.8159 25.8715 55.3293 25.8396C55.2969 26.0315 55.2969 26.2555 55.2644 26.4475C55.9781 26.4795 56.7567 26.7035 57.4054 26.5435C58.5085 26.2875 59.5465 25.8076 60.5523 25.3596C63.3097 24.1758 64.8343 24.3677 66.0347 26.9594C66.9754 29.0072 67.0728 31.4389 67.4945 33.7107C67.527 33.8706 67.2674 34.0947 66.7808 34.2546C66.7808 33.4548 66.8133 32.6548 66.7808 31.8549C66.7484 31.055 66.8457 30.2231 66.6186 29.4871C65.3859 25.1677 63.5693 24.4957 60.0981 26.1595C59.3195 26.5114 58.5409 26.9594 57.7299 27.1515C56.9837 27.3114 56.1078 27.2795 55.3942 27.0554C54.9076 26.8954 54.5832 26.1915 54.1939 25.7435C54.7129 25.5836 55.2319 25.3596 55.7511 25.2636C56.2052 25.1677 56.6594 25.2316 57.373 25.2316C56.4647 23.4398 54.9076 23.1199 53.5451 24.2397C52.9611 24.7197 52.5718 25.3916 52.0203 25.9035C51.5986 26.2875 51.0471 26.5435 50.4307 26.6075C51.0147 25.8396 51.5986 25.1677 52.1501 24.4957ZM42.4504 26.3835C44.4293 26.3515 45.1105 25.1677 44.267 23.6638C44.3319 23.5038 44.3968 23.3759 44.4941 23.2159C45.3376 23.5998 46.1811 23.9838 47.284 24.4637C47.3813 24.4318 47.868 24.2397 48.4843 24.0158C46.8298 27.9513 41.1527 28.0154 38.298 25.7756C39.5956 25.9676 41.023 26.4155 42.4504 26.3835ZM32.1667 23.3759C32.6533 23.2159 33.3021 23.5678 33.886 23.6638C35.0215 23.8878 36.1569 24.1118 37.3247 24.3038C37.3571 24.4318 37.3897 24.5598 37.4546 24.6877C35.6703 24.7837 33.886 24.8797 31.972 24.9756C32.1667 25.3596 32.5235 25.7435 32.4262 25.9676C32.2965 26.3195 31.8747 26.5755 31.5827 26.8954C31.0637 26.1275 30.5447 25.3916 30.0257 24.6237C30.7068 24.2077 31.3881 23.6318 32.1667 23.3759ZM43.6507 28.3673C50.3983 28.4632 57.146 28.3993 63.8936 28.3353C65.9049 28.3033 65.4832 29.7431 65.7427 31.119C63.4394 31.119 61.2335 31.119 59.0599 31.119C52.0528 31.151 45.0132 31.119 38.006 31.1829C35.4432 31.215 34.6322 32.0149 34.5673 34.5426C34.5024 37.1983 34.5997 39.854 34.47 42.5098C34.4376 43.0217 33.9185 43.6935 33.4318 43.9495C32.8155 44.3016 32.0045 44.3975 31.2583 44.4615C28.5333 44.7174 27.8846 44.0456 27.6899 41.4218C27.5601 39.5341 27.398 37.5823 26.814 35.7905C25.8408 32.8148 23.5051 31.1829 20.4557 30.4791C18.9958 30.1591 17.5035 29.8071 16.0438 29.4552C15.557 29.3272 15.1029 29.0713 14.6487 28.8792C14.6812 28.6553 14.6812 28.4313 14.7137 28.1754C15.7193 28.0474 16.7249 27.7914 17.7306 27.8233C26.3922 28.0154 35.0215 28.2713 43.6507 28.3673ZM19.2553 25.1356C20.4232 25.2636 21.5586 25.3277 22.6941 25.5516C22.8886 25.5836 22.9859 26.2236 23.1482 26.6075C21.6235 26.1275 20.4557 25.7756 19.2878 25.3916C19.2878 25.3277 19.2553 25.2316 19.2553 25.1356ZM10.8857 23.3439C13.0268 24.0478 12.9619 25.4236 10.4964 27.5673C11.3398 25.9676 12.3455 24.6877 10.8857 23.3439ZM11.3074 28.0154C15.7842 24.0478 20.9747 22.416 26.9762 23.5678C27.333 23.6318 27.625 24.0478 27.9494 24.3038C27.5601 24.4318 27.1708 24.6877 26.8464 24.6237C21.883 23.5038 17.4711 24.6237 13.5134 27.6634C12.6375 28.3353 11.794 29.0713 10.9181 29.7431C10.7558 29.6151 10.5937 29.5191 10.3991 29.3912C10.691 28.9752 10.8857 28.3993 11.3074 28.0154ZM7.99842 27.8553C8.35529 27.7594 8.67973 27.6953 9.06903 27.5994C10.464 30.799 7.0901 33.2307 7.57669 36.3344C8.74459 34.0306 9.03659 31.0231 11.5993 30.639C13.4161 31.6309 14.6487 32.3029 15.8491 32.9747C15.8491 33.1347 15.8491 33.2627 15.8491 33.4227C13.5458 32.9428 11.794 33.7426 10.4964 35.4705C8.45259 38.2222 7.90113 41.3578 8.29043 44.7174C8.97161 50.1889 11.6643 54.5084 15.8815 57.996C16.3681 58.4119 16.8547 58.8279 17.5035 59.4039C15.33 60.1077 14.4217 58.508 13.3187 57.6121C7.25226 52.6846 4.81927 46.1254 5.07879 38.5421C5.17611 36.0145 5.76004 33.4867 6.1169 30.959C6.2142 30.2231 6.27906 29.4871 6.37636 28.7512C6.5062 27.2795 6.53864 25.8715 4.94903 25.0077C6.76566 23.7918 7.73897 24.7517 7.99842 27.8553ZM5.17611 53.6125C5.79247 52.7485 7.25226 52.6206 8.19313 53.4525C9.39335 54.5084 10.464 55.7242 11.6317 56.8121C12.5402 57.676 13.5134 58.4759 14.4541 59.3078C14.3568 59.4039 14.227 59.5319 14.1297 59.6278C12.605 58.38 11.1127 57.1321 9.58805 55.8842C9.16632 55.5642 8.74459 55.1803 8.22556 55.0204C7.64156 54.8283 6.8955 54.6044 6.40891 54.8283C6.05204 55.0204 5.98718 55.8522 5.8249 56.3641C4.78682 55.7242 4.46242 54.5403 5.17611 53.6125ZM4.81927 90.0884C5.50047 90.0884 6.40891 89.8324 6.79809 90.1525C7.25226 90.5364 7.51183 91.4642 7.44696 92.1041C7.34967 93.1921 6.92794 94.28 6.6035 95.3358C6.5062 95.6238 6.34393 95.8797 6.01961 96.1037C6.14934 95.1759 6.2142 94.248 6.44134 93.3201C6.73323 92.1682 6.83053 91.1763 5.24099 90.9843C5.04635 90.9523 4.8517 90.7924 4.6895 90.6963C4.72194 90.5364 4.75438 90.3123 4.81927 90.0884ZM5.40317 109.414C6.27907 109.414 7.15496 109.67 7.99842 109.83C7.93356 109.926 7.8687 110.022 7.80383 110.118C6.76566 110.214 5.69517 110.31 4.42998 110.438C4.75438 110.086 5.07879 109.414 5.40317 109.414Z" fill="black"/>
</svg>
