<svg width="21" height="21" viewBox="0 0 21 21" fill="none" xmlns="http://www.w3.org/2000/svg">
<g clip-path="url(#clip0_1_32)">
<path d="M7.04218 15.5C7.88853 15.5 8.69257 15.3568 9.45428 15.0703C10.216 14.7839 10.8963 14.3802 11.4953 13.8594L16.925 19.2891C16.9901 19.3542 17.0617 19.403 17.1398 19.4355C17.218 19.4681 17.2961 19.4844 17.3742 19.4844C17.4654 19.4844 17.5467 19.4681 17.6183 19.4355C17.69 19.403 17.7583 19.3542 17.8234 19.2891C17.9536 19.1719 18.0187 19.0254 18.0187 18.8496C18.0187 18.6738 17.9536 18.5208 17.8234 18.3906L12.3937 12.9609C12.9016 12.362 13.3019 11.6784 13.5949 10.9102C13.8879 10.1419 14.0344 9.34115 14.0344 8.50781C14.0344 7.53125 13.8456 6.61979 13.468 5.77344C13.1034 4.92708 12.6053 4.18815 11.9738 3.55664C11.3423 2.92513 10.6034 2.42708 9.75702 2.0625C8.91066 1.69792 8.00572 1.51562 7.04218 1.51562C6.07863 1.51562 5.17369 1.69792 4.32733 2.0625C3.46796 2.42708 2.72251 2.92513 2.091 3.55664C1.45949 4.18815 0.961446 4.93359 0.596863 5.79297C0.232279 6.63932 0.0499878 7.54427 0.0499878 8.50781C0.0499878 9.47135 0.232279 10.3763 0.596863 11.2227C0.961446 12.069 1.45949 12.8079 2.091 13.4395C2.72251 14.071 3.46796 14.569 4.32733 14.9336C5.17369 15.3112 6.07863 15.5 7.04218 15.5ZM7.04218 2.78516C7.82343 2.78516 8.56561 2.9349 9.26874 3.23438C9.95884 3.53385 10.5643 3.94401 11.0851 4.46484C11.606 4.98568 12.0161 5.59115 12.3156 6.28125C12.6151 6.97135 12.7648 7.71354 12.7648 8.50781C12.7648 9.28906 12.6151 10.0312 12.3156 10.7344C12.0161 11.4245 11.606 12.0299 11.0851 12.5508C10.5643 13.0716 9.95884 13.4818 9.26874 13.7812C8.56561 14.0807 7.82343 14.2305 7.04218 14.2305C6.2479 14.2305 5.50572 14.0742 4.81561 13.7617C4.11249 13.4622 3.50376 13.0553 2.98944 12.541C2.47512 12.0267 2.06822 11.418 1.76874 10.7148C1.46926 10.0247 1.31952 9.28906 1.31952 8.50781C1.31952 7.71354 1.46926 6.97135 1.76874 6.28125C2.06822 5.59115 2.47837 4.98568 2.99921 4.46484C3.52004 3.94401 4.12551 3.53385 4.81561 3.23438C5.50572 2.9349 6.2479 2.78516 7.04218 2.78516Z" fill="#222222"/>
</g>
<defs>
<clipPath id="clip0_1_32">
<rect width="20" height="20" fill="white" transform="matrix(1 0 0 -1 0.0499878 20.5)"/>
</clipPath>
</defs>
</svg>
